<svg width="131" height="39" viewBox="0 0 131 39" fill="none" xmlns="http://www.w3.org/2000/svg">
<path d="M18.6434 17.2444L12.5344 11.1249C12.4722 11.0627 12.3715 11.0627 12.3094 11.1249L1.19988 22.2536C1.13775 22.3158 1.13776 22.4167 1.19988 22.4789L7.3089 28.5985C7.37102 28.6607 7.47174 28.6607 7.53386 28.5985L18.6434 17.4698C18.7055 17.4076 18.7055 17.3067 18.6434 17.2444Z" fill="#2F80ED"/>
<path d="M30.7159 28.5673L36.7627 22.5101C36.842 22.4306 36.842 22.3018 36.7627 22.2224L25.7154 11.156C25.6361 11.0766 25.5075 11.0766 25.4282 11.156L19.3814 17.2133C19.3021 17.2927 19.3021 17.4215 19.3814 17.5009L30.4287 28.5673C30.508 28.6467 30.6365 28.6467 30.7159 28.5673Z" fill="#2F80ED"/>
<path d="M25.0576 28.1774L19.0913 22.2008C19.0409 22.1503 18.9591 22.1503 18.9087 22.2008L12.9424 28.1774C12.892 28.2279 12.892 28.3098 12.9424 28.3603L18.9087 34.3368C18.9591 34.3874 19.0409 34.3874 19.0913 34.3368L25.0576 28.3603C25.108 28.3098 25.108 28.2279 25.0576 28.1774Z" fill="#012555"/>
<path d="M25.0576 10.6745L19.0913 4.6979C19.0409 4.64739 18.9591 4.64739 18.9087 4.6979L12.9424 10.6745C12.892 10.725 12.892 10.8069 12.9424 10.8574L18.9087 16.8339C18.9591 16.8844 19.0409 16.8844 19.0913 16.8339L25.0576 10.8574C25.108 10.8069 25.108 10.725 25.0576 10.6745Z" fill="#012555"/>
<path d="M52.2731 23.7435H46.2366L44.8252 27.5H42.1978L48.104 12.3001H49.2549C50.0366 12.3001 50.5794 12.6837 50.8834 13.451L56.312 27.5H53.6629L52.2731 23.7435ZM46.9532 21.6155H51.5566L49.2766 15.4487H49.2549L46.9532 21.6155ZM60.683 27.6737C59.3512 27.6737 58.2799 27.2901 57.4693 26.5229C56.6731 25.7556 56.275 24.7423 56.275 23.4829V20.7469C56.275 19.9073 56.4559 19.169 56.8178 18.5321C57.1797 17.8806 57.6937 17.3812 58.3596 17.0338C59.0255 16.6719 59.7927 16.4909 60.6612 16.4909H62.3984C63.6433 16.4909 64.6422 16.8528 65.3949 17.5766C66.1622 18.286 66.5458 19.2269 66.5458 20.3995H64.0921C64.0921 19.8783 63.9328 19.4585 63.6144 19.1401C63.3104 18.8071 62.905 18.6406 62.3984 18.6406H60.683C60.1184 18.6406 59.6552 18.8505 59.2933 19.2703C58.9458 19.6902 58.7721 20.233 58.7721 20.8989V23.3309C58.7721 23.9823 58.9458 24.5107 59.2933 24.916C59.6552 25.3213 60.1256 25.524 60.7047 25.524H62.4201C62.9557 25.524 63.3828 25.3286 63.7012 24.9377C64.0342 24.5469 64.2007 24.0402 64.2007 23.4177H66.6543C66.6543 24.6916 66.2635 25.7194 65.4818 26.5012C64.7146 27.2829 63.694 27.6737 62.4201 27.6737H60.683ZM71.7953 27.6737C70.4635 27.6737 69.3923 27.2901 68.5816 26.5229C67.7855 25.7556 67.3874 24.7423 67.3874 23.4829V20.7469C67.3874 19.9073 67.5683 19.169 67.9302 18.5321C68.2921 17.8806 68.806 17.3812 69.4719 17.0338C70.1378 16.6719 70.9051 16.4909 71.7736 16.4909H73.5108C74.7557 16.4909 75.7545 16.8528 76.5073 17.5766C77.2745 18.286 77.6582 19.2269 77.6582 20.3995H75.2045C75.2045 19.8783 75.0452 19.4585 74.7267 19.1401C74.4227 18.8071 74.0174 18.6406 73.5108 18.6406H71.7953C71.2308 18.6406 70.7675 18.8505 70.4056 19.2703C70.0582 19.6902 69.8845 20.233 69.8845 20.8989V23.3309C69.8845 23.9823 70.0582 24.5107 70.4056 24.916C70.7675 25.3213 71.238 25.524 71.8171 25.524H73.5325C74.0681 25.524 74.4951 25.3286 74.8136 24.9377C75.1466 24.5469 75.313 24.0402 75.313 23.4177H77.7667C77.7667 24.6916 77.3759 25.7194 76.5942 26.5012C75.8269 27.2829 74.8064 27.6737 73.5325 27.6737H71.7953ZM80.5626 15.4487C80.0704 15.4487 79.6723 15.3039 79.3683 15.0144C79.0788 14.7104 78.934 14.3268 78.934 13.8635C78.934 13.4003 79.0788 13.0239 79.3683 12.7344C79.6723 12.4304 80.0704 12.2784 80.5626 12.2784C81.0548 12.2784 81.4529 12.4304 81.7569 12.7344C82.0609 13.0239 82.2129 13.4003 82.2129 13.8635C82.2129 14.3268 82.0609 14.7104 81.7569 15.0144C81.4529 15.3039 81.0548 15.4487 80.5626 15.4487ZM79.3249 16.6646H81.822V27.5H79.3249V16.6646ZM88.1255 27.6737C86.7937 27.6737 85.7225 27.2901 84.9119 26.5229C84.1012 25.7412 83.6959 24.7134 83.6959 23.4395V20.7469C83.6959 19.9073 83.8768 19.169 84.2387 18.5321C84.6151 17.8806 85.1362 17.3812 85.8021 17.0338C86.4825 16.6719 87.2642 16.4909 88.1473 16.4909H90.0581C90.9411 16.4909 91.7156 16.6719 92.3815 17.0338C93.0619 17.3812 93.583 17.8806 93.9449 18.5321C94.3213 19.169 94.5095 19.9073 94.5095 20.7469V23.4395C94.5095 24.7134 94.0969 25.7412 93.2718 26.5229C92.4611 27.2901 91.3754 27.6737 90.0147 27.6737H88.1255ZM89.993 25.524C90.601 25.524 91.0859 25.3213 91.4478 24.916C91.8242 24.4962 92.0124 23.9534 92.0124 23.2875V20.8772C92.0124 20.2113 91.8314 19.6757 91.4695 19.2703C91.1076 18.8505 90.6227 18.6406 90.0147 18.6406H88.1907C87.5827 18.6406 87.0977 18.8505 86.7358 19.2703C86.3739 19.6757 86.193 20.2113 86.193 20.8772V23.2875C86.193 23.9534 86.3739 24.4962 86.7358 24.916C87.0977 25.3213 87.5682 25.524 88.1473 25.524H89.993ZM99.763 27.6737C98.8365 27.6737 98.0186 27.4566 97.3093 27.0223C96.5999 26.5735 96.0498 25.9511 95.659 25.1549C95.2681 24.3442 95.0727 23.4177 95.0727 22.3755H97.5698C97.5698 23.3019 97.7725 24.0475 98.1778 24.612C98.5832 25.1621 99.1115 25.4372 99.763 25.4372H101.5C102.166 25.4372 102.694 25.1476 103.085 24.5686C103.491 23.9751 103.693 23.1861 103.693 22.2018V12.3001H106.234V22.2886C106.234 23.3743 106.038 24.3225 105.647 25.1332C105.271 25.9438 104.728 26.5735 104.019 27.0223C103.324 27.4566 102.513 27.6737 101.587 27.6737H99.763ZM112.047 27.6737C110.715 27.6737 109.644 27.2901 108.833 26.5229C108.022 25.7412 107.617 24.7134 107.617 23.4395V20.7469C107.617 19.9073 107.798 19.169 108.16 18.5321C108.536 17.8806 109.057 17.3812 109.723 17.0338C110.404 16.6719 111.185 16.4909 112.068 16.4909H113.979C114.862 16.4909 115.637 16.6719 116.303 17.0338C116.983 17.3812 117.504 17.8806 117.866 18.5321C118.242 19.169 118.431 19.9073 118.431 20.7469V23.4395C118.431 24.7134 118.018 25.7412 117.193 26.5229C116.382 27.2901 115.297 27.6737 113.936 27.6737H112.047ZM113.914 25.524C114.522 25.524 115.007 25.3213 115.369 24.916C115.745 24.4962 115.934 23.9534 115.934 23.2875V20.8772C115.934 20.2113 115.753 19.6757 115.391 19.2703C115.029 18.8505 114.544 18.6406 113.936 18.6406H112.112C111.504 18.6406 111.019 18.8505 110.657 19.2703C110.295 19.6757 110.114 20.2113 110.114 20.8772V23.2875C110.114 23.9534 110.295 24.4962 110.657 24.916C111.019 25.3213 111.489 25.524 112.068 25.524H113.914ZM124.813 27.6737C124.35 27.6737 123.872 27.529 123.38 27.2394C122.902 26.9354 122.519 26.5591 122.229 26.1103V27.5H119.906V12.3001H122.403V17.6635C122.693 17.3016 123.062 17.0193 123.51 16.8166C123.959 16.5995 124.408 16.4909 124.857 16.4909H126.377C127.173 16.4909 127.882 16.6719 128.505 17.0338C129.127 17.3812 129.612 17.8734 129.96 18.5104C130.307 19.1473 130.481 19.8783 130.481 20.7035V23.2875C130.481 24.156 130.307 24.9233 129.96 25.5892C129.612 26.2551 129.12 26.769 128.483 27.1309C127.86 27.4928 127.144 27.6737 126.333 27.6737H124.813ZM126.073 25.4806C126.637 25.4806 127.1 25.2707 127.462 24.8509C127.824 24.4166 128.005 23.852 128.005 23.1572V20.8555C128.005 20.2041 127.832 19.6829 127.484 19.2921C127.137 18.8867 126.688 18.6841 126.138 18.6841H124.748C124.111 18.6841 123.576 18.9157 123.141 19.3789C122.707 19.8277 122.461 20.4212 122.403 21.1595V23.2875C122.475 23.9244 122.721 24.4528 123.141 24.8726C123.576 25.2779 124.075 25.4806 124.64 25.4806H126.073Z" fill="#012555"/>
</svg>
