<svg width="36" height="36" viewBox="0 0 36 36" fill="none" xmlns="http://www.w3.org/2000/svg">
<g id="Frame" clip-path="url(#clip0_4431_1368)">
<path id="Vector" d="M4.5 4.5H31.5C31.8978 4.5 32.2794 4.65804 32.5607 4.93934C32.842 5.22064 33 5.60218 33 6V30C33 30.3978 32.842 30.7794 32.5607 31.0607C32.2794 31.342 31.8978 31.5 31.5 31.5H4.5C4.10218 31.5 3.72064 31.342 3.43934 31.0607C3.15804 30.7794 3 30.3978 3 30V6C3 5.60218 3.15804 5.22064 3.43934 4.93934C3.72064 4.65804 4.10218 4.5 4.5 4.5ZM6 7.5V28.5H30V7.5H6ZM18 22.5H27V25.5H18V22.5ZM13.0005 18L8.757 13.758L10.8795 11.6355L17.2425 18L10.8795 24.3645L8.757 22.242L13.0005 18Z" fill="black"/>
</g>
<defs>
<clipPath id="clip0_4431_1368">
<rect width="36" height="36" fill="white"/>
</clipPath>
</defs>
</svg>
