<svg width="163" height="47" viewBox="0 0 163 47" fill="none" xmlns="http://www.w3.org/2000/svg">
<circle cx="18" cy="23.5" r="18" fill="#FFF6DF"/>
<path d="M17.9483 24.2088C17.9694 24.1877 17.9907 24.1665 18.0118 24.1665C17.504 23.3414 16.6577 22.8336 15.621 22.8548C15.4941 22.8548 15.3672 22.9394 15.3248 23.0664L14.2881 26.1554L13.9285 24.3148H13.9919C14.1189 24.3148 14.2247 24.209 14.2247 24.0821V23.4473C14.2247 23.3204 14.1189 23.2146 13.9919 23.2146H13.1668C13.0399 23.2146 12.9341 23.3204 12.9341 23.4473V24.0821C12.9341 24.209 13.0399 24.3148 13.1668 24.3148H13.2303L12.8706 26.1554L11.8339 23.0664C11.7916 22.9395 11.6858 22.8548 11.5377 22.8548C10.1202 22.8125 9.06241 23.8068 8.74499 25.2032L8.02585 28.1863C7.87768 28.8634 8.38549 29.498 9.06256 29.498H15.9385V29.4769L16.6366 26.4725C16.8481 25.5629 17.2925 24.7801 17.9483 24.2089L17.9483 24.2088Z" fill="#F88341"/>
<path d="M16.8692 19.3004C16.8692 21.1233 15.3916 22.601 13.5688 22.601C11.746 22.601 10.2684 21.1233 10.2684 19.3004C10.2684 17.4777 11.746 16 13.5688 16C15.3916 16 16.8692 17.4777 16.8692 19.3004Z" fill="#F88341"/>
<path d="M28.081 29.7094L27.404 26.7262C27.0867 25.3299 26.0288 24.3355 24.6112 24.3779C24.4843 24.3779 24.3574 24.4624 24.315 24.5895L23.2783 27.6784L22.9187 25.8378H22.9821C23.109 25.8378 23.2148 25.732 23.2148 25.6051V24.9704C23.2148 24.8435 23.109 24.7376 22.9821 24.7376H22.157C22.0301 24.7376 21.9243 24.8435 21.9243 24.9704V25.6051C21.9243 25.732 22.0301 25.8378 22.157 25.8378H22.2205L21.8608 27.6784L20.7819 24.5684C20.7395 24.4415 20.6337 24.3568 20.4857 24.3568C19.0682 24.3144 18.0104 25.3088 17.6929 26.7052L17.0158 29.6883C16.8677 30.3654 17.3755 31 18.0526 31H27.023C27.7213 31 28.229 30.3654 28.081 29.7094L28.081 29.7094Z" fill="#F88341"/>
<path d="M25.8425 20.8236C25.8425 22.6465 24.365 24.124 22.5421 24.124C20.7194 24.124 19.2417 22.6465 19.2417 20.8236C19.2417 19.0009 20.7194 17.5232 22.5421 17.5232C24.365 17.5232 25.8425 19.0009 25.8425 20.8236Z" fill="#F88341"/>
<path d="M49.4342 14.44L49.6742 12.98H50.3142C51.6209 12.98 52.6676 12.7467 53.4542 12.28C54.2409 11.8 54.6342 11.1533 54.6342 10.34C54.6342 9.72667 54.4209 9.24 53.9942 8.88C53.5809 8.50667 53.0476 8.32 52.3942 8.32C51.7809 8.32 51.2542 8.42 50.8142 8.62C50.3742 8.80667 49.9809 9.02667 49.6342 9.28L48.9342 7.92C49.4009 7.58667 49.9342 7.31333 50.5342 7.1C51.1476 6.87333 51.8409 6.76 52.6142 6.76C53.4276 6.76 54.1209 6.91333 54.6942 7.22C55.2809 7.52667 55.7276 7.93333 56.0342 8.44C56.3409 8.93333 56.4942 9.46667 56.4942 10.04C56.4942 10.9733 56.2209 11.7333 55.6742 12.32C55.1276 12.8933 54.3276 13.34 53.2742 13.66C54.1142 13.9533 54.7609 14.3867 55.2142 14.96C55.6676 15.5333 55.8942 16.2133 55.8942 17C55.8942 17.8533 55.6742 18.6 55.2342 19.24C54.7942 19.88 54.1876 20.3733 53.4142 20.72C52.6542 21.0667 51.7809 21.24 50.7942 21.24C50.0342 21.24 49.3142 21.14 48.6342 20.94C47.9676 20.7267 47.4009 20.44 46.9342 20.08L47.9942 18.66C48.3276 18.94 48.7276 19.1733 49.1942 19.36C49.6609 19.5467 50.1942 19.64 50.7942 19.64C51.7009 19.64 52.4542 19.42 53.0542 18.98C53.6542 18.54 53.9542 17.9067 53.9542 17.08C53.9542 16.3467 53.6676 15.7267 53.0942 15.22C52.5209 14.7 51.6409 14.44 50.4542 14.44H49.4342ZM63.4264 21.24C62.0931 21.24 61.0731 20.7733 60.3664 19.84C59.6731 18.8933 59.3264 17.6133 59.3264 16C59.3264 14.88 59.4464 13.7733 59.6864 12.68C59.9264 11.5733 60.2931 10.58 60.7864 9.7C61.2798 8.80667 61.9064 8.09333 62.6664 7.56C63.4398 7.02667 64.3464 6.76 65.3864 6.76C66.7198 6.76 67.7331 7.23333 68.4264 8.18C69.1331 9.11333 69.4864 10.3867 69.4864 12C69.4864 13.12 69.3664 14.2333 69.1264 15.34C68.8864 16.4333 68.5198 17.4267 68.0264 18.32C67.5331 19.2 66.8998 19.9067 66.1264 20.44C65.3664 20.9733 64.4664 21.24 63.4264 21.24ZM63.6264 19.6C64.2664 19.6 64.8264 19.3933 65.3064 18.98C65.7998 18.5533 66.2131 17.98 66.5464 17.26C66.8798 16.54 67.1264 15.72 67.2864 14.8C67.4598 13.8667 67.5464 12.8933 67.5464 11.88C67.5464 10.76 67.3464 9.9 66.9464 9.3C66.5598 8.7 65.9731 8.4 65.1864 8.4C64.5464 8.4 63.9798 8.61333 63.4864 9.04C63.0064 9.45333 62.5998 10.02 62.2664 10.74C61.9331 11.46 61.6798 12.2867 61.5064 13.22C61.3464 14.14 61.2664 15.1067 61.2664 16.12C61.2664 17.24 61.4664 18.1 61.8664 18.7C62.2664 19.3 62.8531 19.6 63.6264 19.6ZM75.4186 21.24C74.0853 21.24 73.0653 20.7733 72.3586 19.84C71.6653 18.8933 71.3186 17.6133 71.3186 16C71.3186 14.88 71.4386 13.7733 71.6786 12.68C71.9186 11.5733 72.2853 10.58 72.7786 9.7C73.2719 8.80667 73.8986 8.09333 74.6586 7.56C75.4319 7.02667 76.3386 6.76 77.3786 6.76C78.7119 6.76 79.7253 7.23333 80.4186 8.18C81.1253 9.11333 81.4786 10.3867 81.4786 12C81.4786 13.12 81.3586 14.2333 81.1186 15.34C80.8786 16.4333 80.5119 17.4267 80.0186 18.32C79.5253 19.2 78.8919 19.9067 78.1186 20.44C77.3586 20.9733 76.4586 21.24 75.4186 21.24ZM75.6186 19.6C76.2586 19.6 76.8186 19.3933 77.2986 18.98C77.7919 18.5533 78.2053 17.98 78.5386 17.26C78.8719 16.54 79.1186 15.72 79.2786 14.8C79.4519 13.8667 79.5386 12.8933 79.5386 11.88C79.5386 10.76 79.3386 9.9 78.9386 9.3C78.5519 8.7 77.9653 8.4 77.1786 8.4C76.5386 8.4 75.9719 8.61333 75.4786 9.04C74.9986 9.45333 74.5919 10.02 74.2586 10.74C73.9253 11.46 73.6719 12.2867 73.4986 13.22C73.3386 14.14 73.2586 15.1067 73.2586 16.12C73.2586 17.24 73.4586 18.1 73.8586 18.7C74.2586 19.3 74.8453 19.6 75.6186 19.6ZM89.0308 14.92L88.4508 18.16H86.7508L87.3308 14.92H84.2708L84.5308 13.36H87.5908L88.1708 10.1H89.8708L89.2908 13.36H92.3308L92.0708 14.92H89.0308Z" fill="#2B2F34"/>
<path d="M47.4862 34.52C47.4862 34.112 47.4302 33.812 47.3182 33.62C47.2062 33.42 46.9822 33.32 46.6462 33.32H46.4062V33.08H49.5262C50.2942 33.08 50.9862 33.244 51.6022 33.572C52.2182 33.9 52.5262 34.536 52.5262 35.48C52.5262 36.104 52.3662 36.584 52.0462 36.92C51.7262 37.256 51.3662 37.48 50.9662 37.592C50.5742 37.704 50.2142 37.76 49.8862 37.76H48.5662V41H47.4862V34.52ZM49.4662 37.34C49.7222 37.34 49.9942 37.276 50.2822 37.148C50.5702 37.012 50.8142 36.8 51.0142 36.512C51.2222 36.224 51.3262 35.86 51.3262 35.42C51.3262 34.98 51.2222 34.616 51.0142 34.328C50.8142 34.04 50.5702 33.832 50.2822 33.704C49.9942 33.568 49.7222 33.5 49.4662 33.5C49.1862 33.5 48.8862 33.54 48.5662 33.62V37.22C48.8862 37.3 49.1862 37.34 49.4662 37.34ZM55.1047 41.12C54.8487 41.12 54.5887 41.068 54.3247 40.964C54.0607 40.852 53.8327 40.672 53.6407 40.424C53.4567 40.176 53.3647 39.848 53.3647 39.44C53.3647 38.832 53.6447 38.4 54.2047 38.144C54.7727 37.888 55.5127 37.76 56.4247 37.76H56.7847C56.7847 36.976 56.6767 36.44 56.4607 36.152C56.2447 35.864 55.9327 35.72 55.5247 35.72C55.1647 35.72 54.8767 35.796 54.6607 35.948C54.4447 36.1 54.2927 36.364 54.2047 36.74H53.6647C53.6647 36.468 53.6807 36.256 53.7127 36.104C53.7447 35.944 53.8287 35.796 53.9647 35.66C54.1087 35.516 54.3447 35.412 54.6727 35.348C55.0087 35.276 55.3727 35.24 55.7647 35.24C56.4127 35.24 56.9247 35.416 57.3007 35.768C57.6767 36.112 57.8647 36.776 57.8647 37.76V41H57.2647L56.8447 40.46H56.7847C56.6407 40.644 56.4287 40.8 56.1487 40.928C55.8687 41.056 55.5207 41.12 55.1047 41.12ZM55.6447 40.58C55.9087 40.58 56.1287 40.516 56.3047 40.388C56.4807 40.26 56.6407 40.084 56.7847 39.86V38.24H56.4247C55.8327 38.24 55.3647 38.352 55.0207 38.576C54.6767 38.792 54.5047 39.08 54.5047 39.44C54.5047 39.808 54.6127 40.092 54.8287 40.292C55.0527 40.484 55.3247 40.58 55.6447 40.58ZM59.7541 36.8C59.7541 36.392 59.6981 36.092 59.5861 35.9C59.4741 35.7 59.2501 35.6 58.9141 35.6H58.7941V35.36H59.7541C60.0581 35.36 60.2861 35.404 60.4381 35.492C60.5981 35.572 60.7101 35.708 60.7741 35.9H60.8341C60.9781 35.716 61.1701 35.56 61.4101 35.432C61.6581 35.304 61.9461 35.24 62.2741 35.24C62.5941 35.24 62.8341 35.3 62.9941 35.42C63.1301 35.524 63.2701 35.704 63.4141 35.96L62.9341 36.32C62.8461 36.2 62.7181 36.112 62.5501 36.056C62.3821 35.992 62.1901 35.96 61.9741 35.96C61.7341 35.96 61.5141 36.016 61.3141 36.128C61.1141 36.232 60.9541 36.376 60.8341 36.56V41H59.7541V36.8ZM66.2156 41.12C65.7676 41.12 65.4156 40.992 65.1596 40.736C64.9036 40.48 64.7756 40.088 64.7756 39.56V35.84H63.9356V35.36H64.7756V34.28L65.3756 33.56H65.8556V35.36H67.2956V35.84H65.8556V39.56C65.8556 40.28 66.1356 40.64 66.6956 40.64C66.8876 40.64 67.0476 40.62 67.1756 40.58C67.3116 40.54 67.4516 40.48 67.5956 40.4L67.7156 40.64C67.5316 40.776 67.3276 40.892 67.1036 40.988C66.8796 41.076 66.5836 41.12 66.2156 41.12ZM68.9023 36.8C68.9023 36.392 68.8463 36.092 68.7343 35.9C68.6223 35.7 68.3983 35.6 68.0623 35.6H67.8223V35.36H68.9023C69.1983 35.36 69.4223 35.4 69.5743 35.48C69.7343 35.56 69.8503 35.68 69.9223 35.84H69.9823C70.1503 35.672 70.3663 35.532 70.6303 35.42C70.9023 35.3 71.2063 35.24 71.5423 35.24C72.1423 35.24 72.6303 35.4 73.0063 35.72C73.3903 36.04 73.5823 36.6 73.5823 37.4V41H72.5023V37.4C72.5023 36.84 72.3743 36.432 72.1183 36.176C71.8703 35.912 71.5583 35.78 71.1823 35.78C70.7583 35.78 70.3583 35.992 69.9823 36.416V41H68.9023V36.8ZM77.5656 41.12C77.0216 41.12 76.5616 40.992 76.1856 40.736C75.8096 40.472 75.5256 40.12 75.3336 39.68C75.1416 39.232 75.0456 38.732 75.0456 38.18C75.0456 37.636 75.1416 37.14 75.3336 36.692C75.5256 36.244 75.8016 35.892 76.1616 35.636C76.5296 35.372 76.9576 35.24 77.4456 35.24C78.2536 35.24 78.8536 35.468 79.2456 35.924C79.6456 36.372 79.8456 37.024 79.8456 37.88L79.8216 38.36H76.1856C76.1856 39.032 76.3296 39.58 76.6176 40.004C76.9056 40.428 77.3016 40.64 77.8056 40.64C78.1816 40.64 78.4976 40.56 78.7536 40.4C79.0176 40.24 79.2616 40 79.4856 39.68L79.7256 39.86C79.4616 40.3 79.1536 40.62 78.8016 40.82C78.4496 41.02 78.0376 41.12 77.5656 41.12ZM78.7056 37.88C78.7056 37.176 78.6016 36.64 78.3936 36.272C78.1856 35.904 77.8696 35.72 77.4456 35.72C77.2056 35.72 76.9896 35.816 76.7976 36.008C76.6056 36.192 76.4536 36.448 76.3416 36.776C76.2376 37.104 76.1856 37.472 76.1856 37.88H78.7056ZM81.445 36.8C81.445 36.392 81.389 36.092 81.277 35.9C81.165 35.7 80.941 35.6 80.605 35.6H80.485V35.36H81.445C81.749 35.36 81.977 35.404 82.129 35.492C82.289 35.572 82.401 35.708 82.465 35.9H82.525C82.669 35.716 82.861 35.56 83.101 35.432C83.349 35.304 83.637 35.24 83.965 35.24C84.285 35.24 84.525 35.3 84.685 35.42C84.821 35.524 84.961 35.704 85.105 35.96L84.625 36.32C84.537 36.2 84.409 36.112 84.241 36.056C84.073 35.992 83.881 35.96 83.665 35.96C83.425 35.96 83.205 36.016 83.005 36.128C82.805 36.232 82.645 36.376 82.525 36.56V41H81.445V36.8ZM92.7425 41.24C91.9985 41.24 91.3425 41.06 90.7745 40.7C90.2145 40.34 89.7825 39.852 89.4785 39.236C89.1745 38.612 89.0225 37.92 89.0225 37.16C89.0225 36.376 89.1865 35.652 89.5145 34.988C89.8505 34.324 90.3025 33.8 90.8705 33.416C91.4465 33.032 92.0705 32.84 92.7425 32.84C93.3825 32.84 93.9425 32.932 94.4225 33.116C94.9105 33.292 95.2705 33.52 95.5025 33.8C95.6385 33.968 95.7225 34.192 95.7545 34.472C95.7865 34.744 95.8025 35.12 95.8025 35.6H95.5625C95.4105 34.824 95.1305 34.252 94.7225 33.884C94.3145 33.508 93.7745 33.32 93.1025 33.32C92.2385 33.32 91.5425 33.624 91.0145 34.232C90.4865 34.84 90.2225 35.816 90.2225 37.16C90.2225 37.792 90.3225 38.38 90.5225 38.924C90.7305 39.468 91.0505 39.912 91.4825 40.256C91.9145 40.592 92.4545 40.76 93.1025 40.76C93.6865 40.76 94.1945 40.62 94.6265 40.34C95.0665 40.06 95.4585 39.64 95.8025 39.08L96.0425 39.26C95.6745 39.98 95.2185 40.492 94.6745 40.796C94.1385 41.092 93.4945 41.24 92.7425 41.24ZM99.775 41.12C99.231 41.12 98.759 40.992 98.359 40.736C97.959 40.472 97.655 40.116 97.447 39.668C97.239 39.22 97.135 38.724 97.135 38.18C97.135 37.636 97.239 37.14 97.447 36.692C97.655 36.244 97.959 35.892 98.359 35.636C98.759 35.372 99.231 35.24 99.775 35.24C100.319 35.24 100.791 35.372 101.191 35.636C101.591 35.892 101.895 36.244 102.103 36.692C102.311 37.14 102.415 37.636 102.415 38.18C102.415 38.724 102.311 39.22 102.103 39.668C101.895 40.116 101.591 40.472 101.191 40.736C100.791 40.992 100.319 41.12 99.775 41.12ZM99.775 40.64C100.071 40.64 100.331 40.532 100.555 40.316C100.787 40.1 100.963 39.804 101.083 39.428C101.211 39.052 101.275 38.636 101.275 38.18C101.275 37.724 101.211 37.308 101.083 36.932C100.963 36.556 100.787 36.26 100.555 36.044C100.331 35.828 100.071 35.72 99.775 35.72C99.479 35.72 99.215 35.828 98.983 36.044C98.759 36.26 98.583 36.556 98.455 36.932C98.335 37.308 98.275 37.724 98.275 38.18C98.275 38.636 98.335 39.052 98.455 39.428C98.583 39.804 98.759 40.1 98.983 40.316C99.215 40.532 99.479 40.64 99.775 40.64ZM104.122 36.8C104.122 36.392 104.066 36.092 103.954 35.9C103.842 35.7 103.618 35.6 103.282 35.6H103.042V35.36H104.122C104.418 35.36 104.642 35.4 104.794 35.48C104.954 35.56 105.07 35.68 105.142 35.84H105.202C105.37 35.672 105.586 35.532 105.85 35.42C106.122 35.3 106.426 35.24 106.762 35.24C107.098 35.24 107.386 35.304 107.626 35.432C107.866 35.552 108.058 35.768 108.202 36.08C108.41 35.816 108.674 35.612 108.994 35.468C109.322 35.316 109.658 35.24 110.002 35.24C110.514 35.24 110.922 35.4 111.226 35.72C111.53 36.04 111.682 36.6 111.682 37.4V41H110.602V37.4C110.602 36.824 110.522 36.412 110.362 36.164C110.202 35.908 109.962 35.78 109.642 35.78C109.418 35.78 109.182 35.864 108.934 36.032C108.686 36.192 108.502 36.368 108.382 36.56C108.422 36.68 108.442 36.96 108.442 37.4V41H107.362V37.4C107.362 36.824 107.282 36.412 107.122 36.164C106.962 35.908 106.722 35.78 106.402 35.78C105.978 35.78 105.578 35.992 105.202 36.416V41H104.122V36.8ZM113.664 36.8C113.664 36.392 113.608 36.092 113.496 35.9C113.384 35.7 113.16 35.6 112.824 35.6H112.584V35.36H113.664C113.968 35.36 114.196 35.404 114.348 35.492C114.508 35.572 114.62 35.708 114.684 35.9H114.744C114.888 35.716 115.092 35.56 115.356 35.432C115.62 35.304 115.956 35.24 116.364 35.24C117.052 35.24 117.584 35.52 117.96 36.08C118.336 36.632 118.524 37.332 118.524 38.18C118.524 39.036 118.328 39.74 117.936 40.292C117.552 40.844 116.988 41.12 116.244 41.12C115.94 41.12 115.672 41.088 115.44 41.024C115.208 40.96 114.976 40.872 114.744 40.76V43.28H113.664V36.8ZM115.884 40.64C116.396 40.64 116.772 40.416 117.012 39.968C117.26 39.52 117.384 38.924 117.384 38.18C117.384 37.444 117.268 36.852 117.036 36.404C116.804 35.948 116.46 35.72 116.004 35.72C115.468 35.72 115.048 35.96 114.744 36.44V40.28C114.984 40.392 115.192 40.48 115.368 40.544C115.544 40.608 115.716 40.64 115.884 40.64ZM121.405 41.12C121.149 41.12 120.889 41.068 120.625 40.964C120.361 40.852 120.133 40.672 119.941 40.424C119.757 40.176 119.665 39.848 119.665 39.44C119.665 38.832 119.945 38.4 120.505 38.144C121.073 37.888 121.813 37.76 122.725 37.76H123.085C123.085 36.976 122.977 36.44 122.761 36.152C122.545 35.864 122.233 35.72 121.825 35.72C121.465 35.72 121.177 35.796 120.961 35.948C120.745 36.1 120.593 36.364 120.505 36.74H119.965C119.965 36.468 119.981 36.256 120.013 36.104C120.045 35.944 120.129 35.796 120.265 35.66C120.409 35.516 120.645 35.412 120.973 35.348C121.309 35.276 121.673 35.24 122.065 35.24C122.713 35.24 123.225 35.416 123.601 35.768C123.977 36.112 124.165 36.776 124.165 37.76V41H123.565L123.145 40.46H123.085C122.941 40.644 122.729 40.8 122.449 40.928C122.169 41.056 121.821 41.12 121.405 41.12ZM121.945 40.58C122.209 40.58 122.429 40.516 122.605 40.388C122.781 40.26 122.941 40.084 123.085 39.86V38.24H122.725C122.133 38.24 121.665 38.352 121.321 38.576C120.977 38.792 120.805 39.08 120.805 39.44C120.805 39.808 120.913 40.092 121.129 40.292C121.353 40.484 121.625 40.58 121.945 40.58ZM126.139 36.8C126.139 36.392 126.083 36.092 125.971 35.9C125.859 35.7 125.635 35.6 125.299 35.6H125.059V35.36H126.139C126.435 35.36 126.659 35.4 126.811 35.48C126.971 35.56 127.087 35.68 127.159 35.84H127.219C127.387 35.672 127.603 35.532 127.867 35.42C128.139 35.3 128.443 35.24 128.779 35.24C129.379 35.24 129.867 35.4 130.243 35.72C130.627 36.04 130.819 36.6 130.819 37.4V41H129.739V37.4C129.739 36.84 129.611 36.432 129.355 36.176C129.107 35.912 128.795 35.78 128.419 35.78C127.995 35.78 127.595 35.992 127.219 36.416V41H126.139V36.8ZM133.242 34.64C133.058 34.64 132.898 34.564 132.762 34.412C132.634 34.26 132.57 34.08 132.57 33.872C132.57 33.704 132.618 33.572 132.714 33.476C132.818 33.38 132.954 33.332 133.122 33.332C133.306 33.332 133.462 33.408 133.59 33.56C133.726 33.712 133.794 33.892 133.794 34.1C133.794 34.268 133.742 34.4 133.638 34.496C133.542 34.592 133.41 34.64 133.242 34.64ZM132.786 36.8C132.786 36.392 132.73 36.092 132.618 35.9C132.506 35.7 132.282 35.6 131.946 35.6H131.706V35.36H132.786C133.082 35.36 133.302 35.4 133.446 35.48C133.598 35.552 133.706 35.688 133.77 35.888C133.834 36.088 133.866 36.392 133.866 36.8V41H132.786V36.8ZM137.875 41.12C137.331 41.12 136.871 40.992 136.495 40.736C136.119 40.472 135.835 40.12 135.643 39.68C135.451 39.232 135.355 38.732 135.355 38.18C135.355 37.636 135.451 37.14 135.643 36.692C135.835 36.244 136.111 35.892 136.471 35.636C136.839 35.372 137.267 35.24 137.755 35.24C138.563 35.24 139.163 35.468 139.555 35.924C139.955 36.372 140.155 37.024 140.155 37.88L140.131 38.36H136.495C136.495 39.032 136.639 39.58 136.927 40.004C137.215 40.428 137.611 40.64 138.115 40.64C138.491 40.64 138.807 40.56 139.063 40.4C139.327 40.24 139.571 40 139.795 39.68L140.035 39.86C139.771 40.3 139.463 40.62 139.111 40.82C138.759 41.02 138.347 41.12 137.875 41.12ZM139.015 37.88C139.015 37.176 138.911 36.64 138.703 36.272C138.495 35.904 138.179 35.72 137.755 35.72C137.515 35.72 137.299 35.816 137.107 36.008C136.915 36.192 136.763 36.448 136.651 36.776C136.547 37.104 136.495 37.472 136.495 37.88H139.015ZM143.542 41.12C142.622 41.12 142.002 40.96 141.682 40.64C141.546 40.504 141.462 40.352 141.43 40.184C141.398 40.008 141.382 39.74 141.382 39.38H141.622C141.694 39.78 141.866 40.092 142.138 40.316C142.418 40.532 142.806 40.64 143.302 40.64C143.742 40.64 144.07 40.564 144.286 40.412C144.51 40.26 144.622 40.056 144.622 39.8C144.622 39.568 144.534 39.368 144.358 39.2C144.19 39.032 143.918 38.872 143.542 38.72L142.822 38.42C142.342 38.228 141.982 38.004 141.742 37.748C141.502 37.492 141.382 37.176 141.382 36.8C141.382 36.312 141.566 35.932 141.934 35.66C142.302 35.38 142.778 35.24 143.362 35.24C144.242 35.24 144.842 35.4 145.162 35.72C145.298 35.856 145.382 36.008 145.414 36.176C145.446 36.344 145.462 36.612 145.462 36.98H145.222C145.158 36.58 144.99 36.272 144.718 36.056C144.446 35.832 144.074 35.72 143.602 35.72C143.226 35.72 142.93 35.8 142.714 35.96C142.506 36.112 142.402 36.312 142.402 36.56C142.402 36.976 142.722 37.316 143.362 37.58L144.082 37.88C144.626 38.104 145.022 38.344 145.27 38.6C145.518 38.848 145.642 39.168 145.642 39.56C145.642 40.048 145.446 40.432 145.054 40.712C144.662 40.984 144.158 41.12 143.542 41.12Z" fill="#4F4F4F"/>
</svg>
