<svg width="134" height="47" viewBox="0 0 134 47" fill="none" xmlns="http://www.w3.org/2000/svg">
<circle cx="18" cy="23.5" r="18" fill="#FFE1DF"/>
<g clip-path="url(#clip0_0_1231)">
<path d="M18.0026 18.8333C19.7707 18.8333 21.4664 19.5357 22.7167 20.7859C23.9669 22.0361 24.6693 23.7318 24.6693 25.4999C24.6693 27.268 23.9669 28.9637 22.7167 30.214C21.4664 31.4642 19.7707 32.1666 18.0026 32.1666C16.2345 32.1666 14.5388 31.4642 13.2886 30.214C12.0383 28.9637 11.3359 27.268 11.3359 25.4999C11.3359 23.7318 12.0383 22.0361 13.2886 20.7859C14.5388 19.5357 16.2345 18.8333 18.0026 18.8333ZM18.0026 21.7499L16.9001 23.9833L14.4359 24.3416L16.2193 26.0791L15.7984 28.5341L18.0026 27.3749L20.2068 28.5333L19.7859 26.0791L21.5693 24.3408L19.1051 23.9824L18.0026 21.7499ZM18.8359 14.6658L23.0026 14.6666V17.1666L21.8668 18.1149C20.9242 17.6204 19.8952 17.3123 18.8359 17.2074V14.6666V14.6658ZM17.1693 14.6658V17.2074C16.1104 17.3121 15.0816 17.62 14.1393 18.1141L13.0026 17.1666V14.6666L17.1693 14.6658Z" fill="#FF7169"/>
</g>
<path d="M54.8742 17.98L54.3542 21H52.5942L53.1142 17.98H47.1542L47.3942 16.58L53.2542 6.86L54.7942 7.52L49.4942 16.38H53.3942L54.1142 12.4H55.8742L55.1542 16.38H56.8742L56.5942 17.98H54.8742ZM63.2864 19.4L65.0664 9.34L62.0864 11.42L61.2664 9.98L65.9464 7H67.2664L65.0864 19.4H67.4664L67.1864 21H60.1464L60.4264 19.4H63.2864ZM79.4947 7H81.3947L79.2347 19.3H85.6547L85.3547 21H77.0347L79.4947 7ZM86.837 16.9C86.837 15.6067 87.117 14.4733 87.677 13.5C88.2504 12.5133 89.037 11.7467 90.037 11.2C91.037 10.64 92.177 10.36 93.457 10.36C94.2437 10.36 94.9304 10.44 95.517 10.6C96.117 10.76 96.6104 10.92 96.997 11.08L95.737 18.18C95.7237 18.2467 95.7104 18.3267 95.697 18.42C95.697 18.5 95.697 18.5867 95.697 18.68C95.697 19.0533 95.8037 19.32 96.017 19.48C96.2304 19.6267 96.5104 19.7 96.857 19.7L96.237 21.1C95.517 21.1 94.9637 20.9267 94.577 20.58C94.2037 20.22 94.017 19.6667 94.017 18.92C93.6437 19.56 93.1704 20.1067 92.597 20.56C92.037 21.0133 91.377 21.24 90.617 21.24C89.9637 21.24 89.3504 21.0667 88.777 20.72C88.2037 20.36 87.737 19.86 87.377 19.22C87.017 18.5667 86.837 17.7933 86.837 16.9ZM95.017 12.14C94.7637 12.06 94.497 12 94.217 11.96C93.9504 11.9067 93.6237 11.88 93.237 11.88C92.317 11.88 91.517 12.0867 90.837 12.5C90.157 12.9133 89.6237 13.4867 89.237 14.22C88.8637 14.94 88.677 15.76 88.677 16.68C88.677 17.32 88.7904 17.86 89.017 18.3C89.257 18.74 89.5637 19.0733 89.937 19.3C90.3104 19.5267 90.697 19.64 91.097 19.64C91.6437 19.64 92.1437 19.4533 92.597 19.08C93.0504 18.7067 93.437 18.1867 93.757 17.52C94.0904 16.8533 94.3304 16.0933 94.477 15.24L95.017 12.14ZM101.273 6.2H103.073L101.993 12.34C102.353 11.7267 102.826 11.2467 103.413 10.9C104 10.54 104.66 10.36 105.393 10.36C105.966 10.36 106.473 10.48 106.913 10.72C107.366 10.96 107.72 11.2867 107.973 11.7C108.226 12.1 108.353 12.5467 108.353 13.04C108.353 14.0933 107.993 14.8733 107.273 15.38C106.566 15.8733 105.666 16.12 104.573 16.12C104.506 16.12 104.44 16.12 104.373 16.12C104.306 16.12 104.226 16.1133 104.133 16.1L105.833 18.7C106.06 19.0467 106.313 19.3 106.593 19.46C106.886 19.62 107.28 19.7 107.773 19.7L107.153 21.1C106.54 21.1 106.02 21.0133 105.593 20.84C105.166 20.6533 104.786 20.2733 104.453 19.7L101.993 15.46L102.173 14.88C102.373 14.9733 102.626 15.0533 102.933 15.12C103.24 15.1733 103.586 15.2 103.973 15.2C104.84 15.2 105.493 15.02 105.933 14.66C106.386 14.2867 106.613 13.8133 106.613 13.24C106.613 12.8267 106.46 12.48 106.153 12.2C105.86 11.9067 105.46 11.76 104.953 11.76C104.58 11.76 104.146 11.88 103.653 12.12C103.173 12.3467 102.72 12.7533 102.293 13.34C101.866 13.9267 101.56 14.7533 101.373 15.82L100.473 21H98.673L101.273 6.2ZM117.712 13.64C117.712 13.1333 117.559 12.7267 117.252 12.42C116.959 12.1 116.572 11.94 116.092 11.94C115.626 11.94 115.112 12.1067 114.552 12.44C114.006 12.7733 113.506 13.2933 113.052 14C112.599 14.7067 112.272 15.62 112.072 16.74L111.332 21H109.532L112.132 6.2H113.932L112.772 12.78C113.186 12.0467 113.726 11.46 114.392 11.02C115.072 10.58 115.786 10.36 116.532 10.36C117.452 10.36 118.179 10.64 118.712 11.2C119.259 11.7467 119.532 12.42 119.532 13.22C119.532 13.5533 119.492 13.9733 119.412 14.48L118.272 21H116.472L117.572 14.78C117.639 14.46 117.679 14.2267 117.692 14.08C117.706 13.92 117.712 13.7733 117.712 13.64ZM128.59 12.86C128.203 12.5933 127.77 12.36 127.29 12.16C126.823 11.96 126.29 11.86 125.69 11.86C125.063 11.86 124.576 11.9667 124.23 12.18C123.883 12.3933 123.71 12.6733 123.71 13.02C123.71 13.22 123.763 13.4133 123.87 13.6C123.99 13.7733 124.196 13.96 124.49 14.16C124.796 14.36 125.223 14.6 125.77 14.88C126.676 15.3333 127.35 15.8067 127.79 16.3C128.23 16.78 128.45 17.3733 128.45 18.08C128.45 18.7867 128.263 19.3733 127.89 19.84C127.516 20.3067 127.016 20.66 126.39 20.9C125.763 21.1267 125.056 21.24 124.27 21.24C123.456 21.24 122.736 21.14 122.11 20.94C121.496 20.7267 120.963 20.4533 120.51 20.12L121.53 18.64C121.89 18.9333 122.316 19.18 122.81 19.38C123.303 19.58 123.843 19.68 124.43 19.68C125.096 19.68 125.623 19.5533 126.01 19.3C126.396 19.0467 126.59 18.7333 126.59 18.36C126.59 18.0133 126.443 17.6933 126.15 17.4C125.87 17.1067 125.316 16.7533 124.49 16.34C123.823 16.0067 123.303 15.6867 122.93 15.38C122.556 15.06 122.296 14.72 122.15 14.36C122.003 14 121.93 13.5867 121.93 13.12C121.93 12.5867 122.09 12.1133 122.41 11.7C122.73 11.2867 123.176 10.96 123.75 10.72C124.323 10.48 124.983 10.36 125.73 10.36C126.476 10.36 127.143 10.46 127.73 10.66C128.33 10.8467 128.856 11.0733 129.31 11.34L128.59 12.86Z" fill="#2B2F34"/>
<path d="M47.4862 34.52C47.4862 34.112 47.4302 33.812 47.3182 33.62C47.2062 33.42 46.9822 33.32 46.6462 33.32H46.4062V33.08H47.4862C47.7822 33.08 48.0022 33.12 48.1462 33.2C48.2982 33.272 48.4062 33.408 48.4702 33.608C48.5342 33.808 48.5662 34.112 48.5662 34.52V36.68H52.1662V33.08H53.2462V39.56C53.2462 39.968 53.3022 40.272 53.4142 40.472C53.5262 40.664 53.7502 40.76 54.0862 40.76H54.3262V41H53.2462C52.9502 41 52.7262 40.964 52.5742 40.892C52.4302 40.812 52.3262 40.672 52.2622 40.472C52.1982 40.272 52.1662 39.968 52.1662 39.56V37.16H48.5662V41H47.4862V34.52ZM56.3186 34.64C56.1346 34.64 55.9746 34.564 55.8386 34.412C55.7106 34.26 55.6466 34.08 55.6466 33.872C55.6466 33.704 55.6946 33.572 55.7906 33.476C55.8946 33.38 56.0306 33.332 56.1986 33.332C56.3826 33.332 56.5386 33.408 56.6666 33.56C56.8026 33.712 56.8706 33.892 56.8706 34.1C56.8706 34.268 56.8186 34.4 56.7146 34.496C56.6186 34.592 56.4866 34.64 56.3186 34.64ZM55.8626 36.8C55.8626 36.392 55.8066 36.092 55.6946 35.9C55.5826 35.7 55.3586 35.6 55.0226 35.6H54.7826V35.36H55.8626C56.1586 35.36 56.3786 35.4 56.5226 35.48C56.6746 35.552 56.7826 35.688 56.8466 35.888C56.9106 36.088 56.9426 36.392 56.9426 36.8V41H55.8626V36.8ZM60.8437 43.4C60.0357 43.4 59.3917 43.252 58.9117 42.956C58.4397 42.66 58.2037 42.188 58.2037 41.54C58.2037 41.172 58.3277 40.852 58.5757 40.58C58.8237 40.308 59.1397 40.108 59.5237 39.98C59.2037 39.804 59.0437 39.564 59.0437 39.26C59.0437 39.1 59.0797 38.976 59.1517 38.888C59.2237 38.8 59.3277 38.704 59.4637 38.6C59.2077 38.472 58.9917 38.272 58.8157 38C58.6477 37.728 58.5637 37.408 58.5637 37.04C58.5637 35.84 59.3237 35.24 60.8437 35.24H63.0637V35.54L62.2837 35.66V35.72C62.5317 35.848 62.7317 36.028 62.8837 36.26C63.0437 36.484 63.1237 36.744 63.1237 37.04C63.1237 38.24 62.3637 38.84 60.8437 38.84C60.0037 38.84 59.5837 38.98 59.5837 39.26C59.5837 39.54 60.0037 39.68 60.8437 39.68C61.6197 39.68 62.2517 39.836 62.7397 40.148C63.2357 40.452 63.4837 40.916 63.4837 41.54C63.4837 42.188 63.2437 42.66 62.7637 42.956C62.2917 43.252 61.6517 43.4 60.8437 43.4ZM60.8437 38.42C61.2037 38.42 61.4917 38.312 61.7077 38.096C61.9317 37.872 62.0437 37.52 62.0437 37.04C62.0437 36.584 61.9317 36.24 61.7077 36.008C61.4917 35.776 61.2037 35.66 60.8437 35.66C60.4837 35.66 60.1917 35.772 59.9677 35.996C59.7517 36.212 59.6437 36.56 59.6437 37.04C59.6437 37.52 59.7517 37.872 59.9677 38.096C60.1917 38.312 60.4837 38.42 60.8437 38.42ZM60.8437 42.92C61.3237 42.92 61.7037 42.804 61.9837 42.572C62.2637 42.348 62.4037 42.004 62.4037 41.54C62.4037 40.74 61.9237 40.28 60.9637 40.16L60.3037 40.1C59.9757 40.228 59.7237 40.408 59.5477 40.64C59.3717 40.872 59.2837 41.172 59.2837 41.54C59.2837 42.004 59.4237 42.348 59.7037 42.572C59.9837 42.804 60.3637 42.92 60.8437 42.92ZM64.782 34.52C64.782 34.112 64.726 33.812 64.614 33.62C64.502 33.42 64.278 33.32 63.942 33.32H63.702V33.08H64.782C65.078 33.08 65.298 33.12 65.442 33.2C65.594 33.272 65.702 33.408 65.766 33.608C65.83 33.808 65.862 34.112 65.862 34.52V35.84C66.03 35.672 66.246 35.532 66.51 35.42C66.782 35.3 67.086 35.24 67.422 35.24C68.022 35.24 68.51 35.4 68.886 35.72C69.27 36.04 69.462 36.6 69.462 37.4V41H68.382V37.4C68.382 36.84 68.254 36.432 67.998 36.176C67.75 35.912 67.438 35.78 67.062 35.78C66.638 35.78 66.238 35.992 65.862 36.416V41H64.782V34.52ZM73.4495 41.12C72.9055 41.12 72.4455 40.992 72.0695 40.736C71.6935 40.472 71.4095 40.12 71.2175 39.68C71.0255 39.232 70.9295 38.732 70.9295 38.18C70.9295 37.636 71.0255 37.14 71.2175 36.692C71.4095 36.244 71.6855 35.892 72.0455 35.636C72.4135 35.372 72.8415 35.24 73.3295 35.24C74.1375 35.24 74.7375 35.468 75.1295 35.924C75.5295 36.372 75.7295 37.024 75.7295 37.88L75.7055 38.36H72.0695C72.0695 39.032 72.2135 39.58 72.5015 40.004C72.7895 40.428 73.1855 40.64 73.6895 40.64C74.0655 40.64 74.3815 40.56 74.6375 40.4C74.9015 40.24 75.1455 40 75.3695 39.68L75.6095 39.86C75.3455 40.3 75.0375 40.62 74.6855 40.82C74.3335 41.02 73.9215 41.12 73.4495 41.12ZM74.5895 37.88C74.5895 37.176 74.4855 36.64 74.2775 36.272C74.0695 35.904 73.7535 35.72 73.3295 35.72C73.0895 35.72 72.8735 35.816 72.6815 36.008C72.4895 36.192 72.3375 36.448 72.2255 36.776C72.1215 37.104 72.0695 37.472 72.0695 37.88H74.5895ZM79.1169 41.12C78.1969 41.12 77.5769 40.96 77.2569 40.64C77.1209 40.504 77.0369 40.352 77.0049 40.184C76.9729 40.008 76.9569 39.74 76.9569 39.38H77.1969C77.2689 39.78 77.4409 40.092 77.7129 40.316C77.9929 40.532 78.3809 40.64 78.8769 40.64C79.3169 40.64 79.6449 40.564 79.8609 40.412C80.0849 40.26 80.1969 40.056 80.1969 39.8C80.1969 39.568 80.1089 39.368 79.9329 39.2C79.7649 39.032 79.4929 38.872 79.1169 38.72L78.3969 38.42C77.9169 38.228 77.5569 38.004 77.3169 37.748C77.0769 37.492 76.9569 37.176 76.9569 36.8C76.9569 36.312 77.1409 35.932 77.5089 35.66C77.8769 35.38 78.3529 35.24 78.9369 35.24C79.8169 35.24 80.4169 35.4 80.7369 35.72C80.8729 35.856 80.9569 36.008 80.9889 36.176C81.0209 36.344 81.0369 36.612 81.0369 36.98H80.7969C80.7329 36.58 80.5649 36.272 80.2929 36.056C80.0209 35.832 79.6489 35.72 79.1769 35.72C78.8009 35.72 78.5049 35.8 78.2889 35.96C78.0809 36.112 77.9769 36.312 77.9769 36.56C77.9769 36.976 78.2969 37.316 78.9369 37.58L79.6569 37.88C80.2009 38.104 80.5969 38.344 80.8449 38.6C81.0929 38.848 81.2169 39.168 81.2169 39.56C81.2169 40.048 81.0209 40.432 80.6289 40.712C80.2369 40.984 79.7329 41.12 79.1169 41.12ZM84.3764 41.12C83.9284 41.12 83.5764 40.992 83.3204 40.736C83.0644 40.48 82.9364 40.088 82.9364 39.56V35.84H82.0964V35.36H82.9364V34.28L83.5364 33.56H84.0164V35.36H85.4564V35.84H84.0164V39.56C84.0164 40.28 84.2964 40.64 84.8564 40.64C85.0484 40.64 85.2084 40.62 85.3364 40.58C85.4724 40.54 85.6124 40.48 85.7564 40.4L85.8764 40.64C85.6924 40.776 85.4884 40.892 85.2644 40.988C85.0404 41.076 84.7444 41.12 84.3764 41.12ZM92.5231 41.204C92.0831 41.204 91.6511 41.144 91.2271 41.024C90.8031 40.904 90.4551 40.732 90.1831 40.508C89.9191 40.284 89.7871 40.028 89.7871 39.74V38.456H90.0031C90.1391 39.256 90.4031 39.836 90.7951 40.196C91.1871 40.548 91.7271 40.724 92.4151 40.724C92.8471 40.724 93.2151 40.616 93.5191 40.4C93.8311 40.184 93.9871 39.884 93.9871 39.5C93.9871 39.164 93.8831 38.872 93.6751 38.624C93.4671 38.376 93.1311 38.116 92.6671 37.844L91.1911 36.968C90.6791 36.664 90.3151 36.356 90.0991 36.044C89.8911 35.732 89.7871 35.352 89.7871 34.904C89.7871 34.288 89.9991 33.796 90.4231 33.428C90.8551 33.052 91.4191 32.864 92.1151 32.864C92.5231 32.864 92.9271 32.924 93.3271 33.044C93.7271 33.156 94.0551 33.324 94.3111 33.548C94.5751 33.764 94.7071 34.016 94.7071 34.304V35.588H94.4911C94.3551 34.788 94.0951 34.216 93.7111 33.872C93.3351 33.52 92.8031 33.344 92.1151 33.344C91.7471 33.344 91.4231 33.456 91.1431 33.68C90.8631 33.904 90.7231 34.196 90.7231 34.556C90.7231 34.884 90.8231 35.156 91.0231 35.372C91.2311 35.588 91.5751 35.84 92.0551 36.128L93.5311 37.004C94.0751 37.332 94.4591 37.636 94.6831 37.916C94.9071 38.196 95.0191 38.552 95.0191 38.984C95.0191 39.656 94.7951 40.196 94.3471 40.604C93.8991 41.004 93.2911 41.204 92.5231 41.204ZM97.8655 41.12C97.6095 41.12 97.3495 41.068 97.0855 40.964C96.8215 40.852 96.5935 40.672 96.4015 40.424C96.2175 40.176 96.1255 39.848 96.1255 39.44C96.1255 38.832 96.4055 38.4 96.9655 38.144C97.5335 37.888 98.2735 37.76 99.1855 37.76H99.5455C99.5455 36.976 99.4375 36.44 99.2215 36.152C99.0055 35.864 98.6935 35.72 98.2855 35.72C97.9255 35.72 97.6375 35.796 97.4215 35.948C97.2055 36.1 97.0535 36.364 96.9655 36.74H96.4255C96.4255 36.468 96.4415 36.256 96.4735 36.104C96.5055 35.944 96.5895 35.796 96.7255 35.66C96.8695 35.516 97.1055 35.412 97.4335 35.348C97.7695 35.276 98.1335 35.24 98.5255 35.24C99.1735 35.24 99.6855 35.416 100.062 35.768C100.438 36.112 100.626 36.776 100.626 37.76V41H100.026L99.6055 40.46H99.5455C99.4015 40.644 99.1895 40.8 98.9095 40.928C98.6295 41.056 98.2815 41.12 97.8655 41.12ZM98.4055 40.58C98.6695 40.58 98.8895 40.516 99.0655 40.388C99.2415 40.26 99.4015 40.084 99.5455 39.86V38.24H99.1855C98.5935 38.24 98.1255 38.352 97.7815 38.576C97.4375 38.792 97.2655 39.08 97.2655 39.44C97.2655 39.808 97.3735 40.092 97.5895 40.292C97.8135 40.484 98.0855 40.58 98.4055 40.58ZM102.467 34.52C102.467 34.112 102.411 33.812 102.299 33.62C102.187 33.42 101.963 33.32 101.627 33.32H101.387V33.08H102.467C102.763 33.08 102.983 33.12 103.127 33.2C103.279 33.272 103.387 33.408 103.451 33.608C103.515 33.808 103.547 34.112 103.547 34.52V41H102.467V34.52ZM106.789 41.12C106.533 41.12 106.273 41.068 106.009 40.964C105.745 40.852 105.517 40.672 105.325 40.424C105.141 40.176 105.049 39.848 105.049 39.44C105.049 38.832 105.329 38.4 105.889 38.144C106.457 37.888 107.197 37.76 108.109 37.76H108.469C108.469 36.976 108.361 36.44 108.145 36.152C107.929 35.864 107.617 35.72 107.209 35.72C106.849 35.72 106.561 35.796 106.345 35.948C106.129 36.1 105.977 36.364 105.889 36.74H105.349C105.349 36.468 105.365 36.256 105.397 36.104C105.429 35.944 105.513 35.796 105.649 35.66C105.793 35.516 106.029 35.412 106.357 35.348C106.693 35.276 107.057 35.24 107.449 35.24C108.097 35.24 108.609 35.416 108.985 35.768C109.361 36.112 109.549 36.776 109.549 37.76V41H108.949L108.529 40.46H108.469C108.325 40.644 108.113 40.8 107.833 40.928C107.553 41.056 107.205 41.12 106.789 41.12ZM107.329 40.58C107.593 40.58 107.813 40.516 107.989 40.388C108.165 40.26 108.325 40.084 108.469 39.86V38.24H108.109C107.517 38.24 107.049 38.352 106.705 38.576C106.361 38.792 106.189 39.08 106.189 39.44C106.189 39.808 106.297 40.092 106.513 40.292C106.737 40.484 107.009 40.58 107.329 40.58ZM111.438 36.8C111.438 36.392 111.382 36.092 111.27 35.9C111.158 35.7 110.934 35.6 110.598 35.6H110.478V35.36H111.438C111.742 35.36 111.97 35.404 112.122 35.492C112.282 35.572 112.394 35.708 112.458 35.9H112.518C112.662 35.716 112.854 35.56 113.094 35.432C113.342 35.304 113.63 35.24 113.958 35.24C114.278 35.24 114.518 35.3 114.678 35.42C114.814 35.524 114.954 35.704 115.098 35.96L114.618 36.32C114.53 36.2 114.402 36.112 114.234 36.056C114.066 35.992 113.874 35.96 113.658 35.96C113.418 35.96 113.198 36.016 112.998 36.128C112.798 36.232 112.638 36.376 112.518 36.56V41H111.438V36.8ZM116.628 43.04C117.02 43.04 117.34 42.948 117.588 42.764C117.844 42.588 118.064 42.26 118.248 41.78L118.488 41.12L116.568 36.44C116.344 35.864 115.904 35.544 115.248 35.48V35.24H116.268C116.964 35.24 117.444 35.56 117.708 36.2L119.076 39.524L120.588 35.36H121.188L118.848 41.78C118.616 42.412 118.36 42.84 118.08 43.064C117.8 43.288 117.436 43.4 116.988 43.4H116.628V43.04Z" fill="#4F4F4F"/>
<defs>
<clipPath id="clip0_0_1231">
<rect width="20" height="20" fill="white" transform="translate(8 13)"/>
</clipPath>
</defs>
</svg>
