<svg width="135" height="44" viewBox="0 0 135 44" fill="none" xmlns="http://www.w3.org/2000/svg">
<circle cx="18" cy="22" r="18" fill="#DFFFE4"/>
<g clip-path="url(#clip0_0_1252)">
<path d="M17.5 12.875L24.6899 14.4727C25.0897 14.562 25.375 14.9164 25.375 15.3268V24.0654C25.375 25.8206 24.4974 27.4604 23.037 28.4334L17.5 32.125L11.963 28.4334C10.5017 27.4595 9.625 25.8206 9.625 24.0662V15.3268C9.625 14.9164 9.91025 14.562 10.3101 14.4727L17.5 12.875ZM21.3955 19.1943L17.0642 23.5246L14.5897 21.0501L13.3525 22.2874L17.0651 26L22.6336 20.4315L21.3955 19.1943Z" fill="#3ECD44"/>
</g>
<path d="M51.2942 18.9L53.0742 8.84L50.0942 10.92L49.2742 9.48L53.9542 6.5H55.2742L53.0942 18.9H55.4742L55.1942 20.5H48.1542L48.4342 18.9H51.2942ZM63.4264 20.74C62.0931 20.74 61.0731 20.2733 60.3664 19.34C59.6731 18.3933 59.3264 17.1133 59.3264 15.5C59.3264 14.38 59.4464 13.2733 59.6864 12.18C59.9264 11.0733 60.2931 10.08 60.7864 9.2C61.2798 8.30667 61.9064 7.59333 62.6664 7.06C63.4398 6.52667 64.3464 6.26 65.3864 6.26C66.7198 6.26 67.7331 6.73333 68.4264 7.68C69.1331 8.61333 69.4864 9.88667 69.4864 11.5C69.4864 12.62 69.3664 13.7333 69.1264 14.84C68.8864 15.9333 68.5198 16.9267 68.0264 17.82C67.5331 18.7 66.8998 19.4067 66.1264 19.94C65.3664 20.4733 64.4664 20.74 63.4264 20.74ZM63.6264 19.1C64.2664 19.1 64.8264 18.8933 65.3064 18.48C65.7998 18.0533 66.2131 17.48 66.5464 16.76C66.8798 16.04 67.1264 15.22 67.2864 14.3C67.4598 13.3667 67.5464 12.3933 67.5464 11.38C67.5464 10.26 67.3464 9.4 66.9464 8.8C66.5598 8.2 65.9731 7.9 65.1864 7.9C64.5464 7.9 63.9798 8.11333 63.4864 8.54C63.0064 8.95333 62.5998 9.52 62.2664 10.24C61.9331 10.96 61.6798 11.7867 61.5064 12.72C61.3464 13.64 61.2664 14.6067 61.2664 15.62C61.2664 16.74 61.4664 17.6 61.8664 18.2C62.2664 18.8 62.8531 19.1 63.6264 19.1ZM75.4186 20.74C74.0853 20.74 73.0653 20.2733 72.3586 19.34C71.6653 18.3933 71.3186 17.1133 71.3186 15.5C71.3186 14.38 71.4386 13.2733 71.6786 12.18C71.9186 11.0733 72.2853 10.08 72.7786 9.2C73.2719 8.30667 73.8986 7.59333 74.6586 7.06C75.4319 6.52667 76.3386 6.26 77.3786 6.26C78.7119 6.26 79.7253 6.73333 80.4186 7.68C81.1253 8.61333 81.4786 9.88667 81.4786 11.5C81.4786 12.62 81.3586 13.7333 81.1186 14.84C80.8786 15.9333 80.5119 16.9267 80.0186 17.82C79.5253 18.7 78.8919 19.4067 78.1186 19.94C77.3586 20.4733 76.4586 20.74 75.4186 20.74ZM75.6186 19.1C76.2586 19.1 76.8186 18.8933 77.2986 18.48C77.7919 18.0533 78.2053 17.48 78.5386 16.76C78.8719 16.04 79.1186 15.22 79.2786 14.3C79.4519 13.3667 79.5386 12.3933 79.5386 11.38C79.5386 10.26 79.3386 9.4 78.9386 8.8C78.5519 8.2 77.9653 7.9 77.1786 7.9C76.5386 7.9 75.9719 8.11333 75.4786 8.54C74.9986 8.95333 74.5919 9.52 74.2586 10.24C73.9253 10.96 73.6719 11.7867 73.4986 12.72C73.3386 13.64 73.2586 14.6067 73.2586 15.62C73.2586 16.74 73.4586 17.6 73.8586 18.2C74.2586 18.8 74.8453 19.1 75.6186 19.1ZM85.3308 20.48L96.5908 5.7L97.6908 6.5L86.4308 21.28L85.3308 20.48ZM90.4908 9.56C90.4908 10.0933 90.4175 10.68 90.2708 11.32C90.1375 11.96 89.9041 12.5667 89.5708 13.14C89.2508 13.7133 88.8175 14.1867 88.2708 14.56C87.7375 14.92 87.0708 15.1 86.2708 15.1C85.3375 15.1 84.6108 14.8133 84.0908 14.24C83.5841 13.6533 83.3308 12.8667 83.3308 11.88C83.3308 11.32 83.3975 10.7267 83.5308 10.1C83.6775 9.46 83.9108 8.86 84.2308 8.3C84.5641 7.72667 85.0041 7.26 85.5508 6.9C86.1108 6.54 86.7975 6.36 87.6108 6.36C88.5441 6.36 89.2575 6.64 89.7508 7.2C90.2441 7.76 90.4908 8.54667 90.4908 9.56ZM86.3908 13.76C86.8841 13.76 87.2908 13.6067 87.6108 13.3C87.9308 12.9933 88.1775 12.6067 88.3508 12.14C88.5241 11.6733 88.6441 11.2 88.7108 10.72C88.7775 10.24 88.8108 9.82667 88.8108 9.48C88.8108 8.28 88.3508 7.68 87.4308 7.68C86.9375 7.68 86.5308 7.83333 86.2108 8.14C85.9041 8.44667 85.6641 8.83333 85.4908 9.3C85.3175 9.75333 85.1908 10.2267 85.1108 10.72C85.0441 11.2 85.0108 11.6133 85.0108 11.96C85.0108 13.16 85.4708 13.76 86.3908 13.76ZM99.6508 15.1C99.6508 15.6333 99.5775 16.22 99.4308 16.86C99.2975 17.5 99.0641 18.1067 98.7308 18.68C98.4108 19.2533 97.9775 19.7267 97.4308 20.1C96.8975 20.46 96.2308 20.64 95.4308 20.64C94.4975 20.64 93.7708 20.3533 93.2508 19.78C92.7441 19.1933 92.4908 18.4067 92.4908 17.42C92.4908 16.86 92.5575 16.2667 92.6908 15.64C92.8375 15 93.0708 14.4 93.3908 13.84C93.7241 13.2667 94.1641 12.8 94.7108 12.44C95.2708 12.08 95.9575 11.9 96.7708 11.9C97.7041 11.9 98.4175 12.18 98.9108 12.74C99.4041 13.3 99.6508 14.0867 99.6508 15.1ZM95.5508 19.3C96.0441 19.3 96.4508 19.1467 96.7708 18.84C97.0908 18.5333 97.3375 18.1467 97.5108 17.68C97.6841 17.2133 97.8041 16.74 97.8708 16.26C97.9375 15.78 97.9708 15.3667 97.9708 15.02C97.9708 13.82 97.5108 13.22 96.5908 13.22C96.0975 13.22 95.6908 13.3733 95.3708 13.68C95.0641 13.9867 94.8241 14.3733 94.6508 14.84C94.4775 15.2933 94.3508 15.7667 94.2708 16.26C94.2041 16.74 94.1708 17.1533 94.1708 17.5C94.1708 18.7 94.6308 19.3 95.5508 19.3Z" fill="#2B2F34"/>
<path d="M46.1062 40.904C46.4902 40.904 46.7742 40.7 46.9582 40.292C47.1502 39.884 47.2462 39.308 47.2462 38.564V31.58H48.3262V38.564C48.3262 39.188 48.2582 39.684 48.1222 40.052C47.9942 40.428 47.7702 40.704 47.4502 40.88C47.1302 41.056 46.6822 41.144 46.1062 41.144V40.904ZM52.5611 39.62C52.0171 39.62 51.5451 39.492 51.1451 39.236C50.7451 38.972 50.4411 38.616 50.2331 38.168C50.0251 37.72 49.9211 37.224 49.9211 36.68C49.9211 36.136 50.0251 35.64 50.2331 35.192C50.4411 34.744 50.7451 34.392 51.1451 34.136C51.5451 33.872 52.0171 33.74 52.5611 33.74C53.1051 33.74 53.5771 33.872 53.9771 34.136C54.3771 34.392 54.6811 34.744 54.8891 35.192C55.0971 35.64 55.2011 36.136 55.2011 36.68C55.2011 37.224 55.0971 37.72 54.8891 38.168C54.6811 38.616 54.3771 38.972 53.9771 39.236C53.5771 39.492 53.1051 39.62 52.5611 39.62ZM52.5611 39.14C52.8571 39.14 53.1171 39.032 53.3411 38.816C53.5731 38.6 53.7491 38.304 53.8691 37.928C53.9971 37.552 54.0611 37.136 54.0611 36.68C54.0611 36.224 53.9971 35.808 53.8691 35.432C53.7491 35.056 53.5731 34.76 53.3411 34.544C53.1171 34.328 52.8571 34.22 52.5611 34.22C52.2651 34.22 52.0011 34.328 51.7691 34.544C51.5451 34.76 51.3691 35.056 51.2411 35.432C51.1211 35.808 51.0611 36.224 51.0611 36.68C51.0611 37.136 51.1211 37.552 51.2411 37.928C51.3691 38.304 51.5451 38.6 51.7691 38.816C52.0011 39.032 52.2651 39.14 52.5611 39.14ZM59.4284 39.62C59.0204 39.62 58.6844 39.556 58.4204 39.428C58.1564 39.3 57.9524 39.144 57.8084 38.96H57.7484L57.3284 39.5H56.7284V33.02C56.7284 32.612 56.6724 32.312 56.5604 32.12C56.4484 31.92 56.2244 31.82 55.8884 31.82H55.6484V31.58H56.7284C57.0244 31.58 57.2444 31.62 57.3884 31.7C57.5404 31.772 57.6484 31.908 57.7124 32.108C57.7764 32.308 57.8084 32.612 57.8084 33.02V34.1C58.0404 33.988 58.2724 33.9 58.5044 33.836C58.7364 33.772 59.0044 33.74 59.3084 33.74C60.0524 33.74 60.6164 34.016 61.0004 34.568C61.3924 35.12 61.5884 35.824 61.5884 36.68C61.5884 37.528 61.4004 38.232 61.0244 38.792C60.6484 39.344 60.1164 39.62 59.4284 39.62ZM59.0684 39.14C59.5244 39.14 59.8684 38.916 60.1004 38.468C60.3324 38.012 60.4484 37.416 60.4484 36.68C60.4484 35.936 60.3244 35.34 60.0764 34.892C59.8364 34.444 59.4604 34.22 58.9484 34.22C58.7804 34.22 58.6084 34.252 58.4324 34.316C58.2564 34.38 58.0484 34.468 57.8084 34.58V38.42C57.9524 38.636 58.1204 38.812 58.3124 38.948C58.5124 39.076 58.7644 39.14 59.0684 39.14ZM69.9936 39.74C69.2096 39.74 68.5056 39.548 67.8816 39.164C67.2656 38.78 66.7816 38.26 66.4296 37.604C66.0856 36.94 65.9136 36.212 65.9136 35.42C65.9136 34.66 66.0656 33.972 66.3696 33.356C66.6736 32.732 67.1056 32.24 67.6656 31.88C68.2336 31.52 68.8896 31.34 69.6336 31.34C70.3216 31.34 70.9136 31.432 71.4096 31.616C71.9136 31.792 72.2816 32.02 72.5136 32.3C72.6416 32.46 72.7216 32.672 72.7536 32.936C72.7936 33.2 72.8136 33.528 72.8136 33.92H72.5736C72.4216 33.216 72.1336 32.692 71.7096 32.348C71.2856 31.996 70.7136 31.82 69.9936 31.82C69.3456 31.82 68.8056 31.992 68.3736 32.336C67.9416 32.672 67.6216 33.112 67.4136 33.656C67.2136 34.2 67.1136 34.788 67.1136 35.42C67.1136 36.772 67.3776 37.752 67.9056 38.36C68.4336 38.96 69.1296 39.26 69.9936 39.26C70.4016 39.26 70.7496 39.224 71.0376 39.152C71.3256 39.08 71.5976 38.976 71.8536 38.84V36.752C71.8536 36.48 71.8976 36.244 71.9856 36.044C72.0736 35.844 72.2616 35.68 72.5496 35.552C72.8456 35.416 73.2736 35.348 73.8336 35.348V35.588C73.4736 35.588 73.2336 35.68 73.1136 35.864C72.9936 36.048 72.9336 36.336 72.9336 36.728V38.984C72.5016 39.248 72.0496 39.44 71.5776 39.56C71.1056 39.68 70.5776 39.74 69.9936 39.74ZM77.0584 39.62C76.4584 39.62 75.9664 39.46 75.5824 39.14C75.2064 38.82 75.0184 38.26 75.0184 37.46V35.3C75.0184 34.892 74.9624 34.592 74.8504 34.4C74.7384 34.2 74.5144 34.1 74.1784 34.1H74.0584V33.86H75.0184C75.3144 33.86 75.5344 33.9 75.6784 33.98C75.8304 34.052 75.9384 34.188 76.0024 34.388C76.0664 34.588 76.0984 34.892 76.0984 35.3V37.46C76.0984 38.02 76.2224 38.432 76.4704 38.696C76.7264 38.952 77.0424 39.08 77.4184 39.08C77.8424 39.08 78.2424 38.868 78.6184 38.444V33.86H79.6984V39.5H79.0984L78.6784 39.02H78.6184C78.4504 39.188 78.2304 39.332 77.9584 39.452C77.6944 39.564 77.3944 39.62 77.0584 39.62ZM82.8922 39.62C82.6362 39.62 82.3762 39.568 82.1122 39.464C81.8482 39.352 81.6202 39.172 81.4282 38.924C81.2442 38.676 81.1522 38.348 81.1522 37.94C81.1522 37.332 81.4322 36.9 81.9922 36.644C82.5602 36.388 83.3002 36.26 84.2122 36.26H84.5722C84.5722 35.476 84.4642 34.94 84.2482 34.652C84.0322 34.364 83.7202 34.22 83.3122 34.22C82.9522 34.22 82.6642 34.296 82.4482 34.448C82.2322 34.6 82.0802 34.864 81.9922 35.24H81.4522C81.4522 34.968 81.4682 34.756 81.5002 34.604C81.5322 34.444 81.6162 34.296 81.7522 34.16C81.8962 34.016 82.1322 33.912 82.4602 33.848C82.7962 33.776 83.1602 33.74 83.5522 33.74C84.2002 33.74 84.7122 33.916 85.0882 34.268C85.4642 34.612 85.6522 35.276 85.6522 36.26V39.5H85.0522L84.6322 38.96H84.5722C84.4282 39.144 84.2162 39.3 83.9362 39.428C83.6562 39.556 83.3082 39.62 82.8922 39.62ZM83.4322 39.08C83.6962 39.08 83.9162 39.016 84.0922 38.888C84.2682 38.76 84.4282 38.584 84.5722 38.36V36.74H84.2122C83.6202 36.74 83.1522 36.852 82.8082 37.076C82.4642 37.292 82.2922 37.58 82.2922 37.94C82.2922 38.308 82.4002 38.592 82.6162 38.792C82.8402 38.984 83.1122 39.08 83.4322 39.08ZM87.5416 35.3C87.5416 34.892 87.4856 34.592 87.3736 34.4C87.2616 34.2 87.0376 34.1 86.7016 34.1H86.5816V33.86H87.5416C87.8456 33.86 88.0736 33.904 88.2256 33.992C88.3856 34.072 88.4976 34.208 88.5616 34.4H88.6216C88.7656 34.216 88.9576 34.06 89.1976 33.932C89.4456 33.804 89.7336 33.74 90.0616 33.74C90.3816 33.74 90.6216 33.8 90.7816 33.92C90.9176 34.024 91.0576 34.204 91.2016 34.46L90.7216 34.82C90.6336 34.7 90.5056 34.612 90.3376 34.556C90.1696 34.492 89.9776 34.46 89.7616 34.46C89.5216 34.46 89.3016 34.516 89.1016 34.628C88.9016 34.732 88.7416 34.876 88.6216 35.06V39.5H87.5416V35.3ZM93.6791 39.62C93.4231 39.62 93.1631 39.568 92.8991 39.464C92.6351 39.352 92.4071 39.172 92.2151 38.924C92.0311 38.676 91.9391 38.348 91.9391 37.94C91.9391 37.332 92.2191 36.9 92.7791 36.644C93.3471 36.388 94.0871 36.26 94.9991 36.26H95.3591C95.3591 35.476 95.2511 34.94 95.0351 34.652C94.8191 34.364 94.5071 34.22 94.0991 34.22C93.7391 34.22 93.4511 34.296 93.2351 34.448C93.0191 34.6 92.8671 34.864 92.7791 35.24H92.2391C92.2391 34.968 92.2551 34.756 92.2871 34.604C92.3191 34.444 92.4031 34.296 92.5391 34.16C92.6831 34.016 92.9191 33.912 93.2471 33.848C93.5831 33.776 93.9471 33.74 94.3391 33.74C94.9871 33.74 95.4991 33.916 95.8751 34.268C96.2511 34.612 96.4391 35.276 96.4391 36.26V39.5H95.8391L95.4191 38.96H95.3591C95.2151 39.144 95.0031 39.3 94.7231 39.428C94.4431 39.556 94.0951 39.62 93.6791 39.62ZM94.2191 39.08C94.4831 39.08 94.7031 39.016 94.8791 38.888C95.0551 38.76 95.2151 38.584 95.3591 38.36V36.74H94.9991C94.4071 36.74 93.9391 36.852 93.5951 37.076C93.2511 37.292 93.0791 37.58 93.0791 37.94C93.0791 38.308 93.1871 38.592 93.4031 38.792C93.6271 38.984 93.8991 39.08 94.2191 39.08ZM98.4125 35.3C98.4125 34.892 98.3565 34.592 98.2445 34.4C98.1325 34.2 97.9085 34.1 97.5725 34.1H97.3325V33.86H98.4125C98.7085 33.86 98.9325 33.9 99.0845 33.98C99.2445 34.06 99.3605 34.18 99.4325 34.34H99.4925C99.6605 34.172 99.8765 34.032 100.14 33.92C100.412 33.8 100.716 33.74 101.052 33.74C101.652 33.74 102.14 33.9 102.516 34.22C102.9 34.54 103.092 35.1 103.092 35.9V39.5H102.012V35.9C102.012 35.34 101.884 34.932 101.628 34.676C101.38 34.412 101.068 34.28 100.692 34.28C100.268 34.28 99.8685 34.492 99.4925 34.916V39.5H98.4125V35.3ZM106.548 39.62C106.1 39.62 105.748 39.492 105.492 39.236C105.236 38.98 105.108 38.588 105.108 38.06V34.34H104.268V33.86H105.108V32.78L105.708 32.06H106.188V33.86H107.628V34.34H106.188V38.06C106.188 38.78 106.468 39.14 107.028 39.14C107.22 39.14 107.38 39.12 107.508 39.08C107.644 39.04 107.784 38.98 107.928 38.9L108.048 39.14C107.864 39.276 107.66 39.392 107.436 39.488C107.212 39.576 106.916 39.62 106.548 39.62ZM111.25 39.62C110.706 39.62 110.246 39.492 109.87 39.236C109.494 38.972 109.21 38.62 109.018 38.18C108.826 37.732 108.73 37.232 108.73 36.68C108.73 36.136 108.826 35.64 109.018 35.192C109.21 34.744 109.486 34.392 109.846 34.136C110.214 33.872 110.642 33.74 111.13 33.74C111.938 33.74 112.538 33.968 112.93 34.424C113.33 34.872 113.53 35.524 113.53 36.38L113.506 36.86H109.87C109.87 37.532 110.014 38.08 110.302 38.504C110.59 38.928 110.986 39.14 111.49 39.14C111.866 39.14 112.182 39.06 112.438 38.9C112.702 38.74 112.946 38.5 113.17 38.18L113.41 38.36C113.146 38.8 112.838 39.12 112.486 39.32C112.134 39.52 111.722 39.62 111.25 39.62ZM112.39 36.38C112.39 35.676 112.286 35.14 112.078 34.772C111.87 34.404 111.554 34.22 111.13 34.22C110.89 34.22 110.674 34.316 110.482 34.508C110.29 34.692 110.138 34.948 110.026 35.276C109.922 35.604 109.87 35.972 109.87 36.38H112.39ZM117.23 39.62C116.686 39.62 116.226 39.492 115.85 39.236C115.474 38.972 115.19 38.62 114.998 38.18C114.806 37.732 114.71 37.232 114.71 36.68C114.71 36.136 114.806 35.64 114.998 35.192C115.19 34.744 115.466 34.392 115.826 34.136C116.194 33.872 116.622 33.74 117.11 33.74C117.918 33.74 118.518 33.968 118.91 34.424C119.31 34.872 119.51 35.524 119.51 36.38L119.486 36.86H115.85C115.85 37.532 115.994 38.08 116.282 38.504C116.57 38.928 116.966 39.14 117.47 39.14C117.846 39.14 118.162 39.06 118.418 38.9C118.682 38.74 118.926 38.5 119.15 38.18L119.39 38.36C119.126 38.8 118.818 39.12 118.466 39.32C118.114 39.52 117.702 39.62 117.23 39.62ZM118.37 36.38C118.37 35.676 118.266 35.14 118.058 34.772C117.85 34.404 117.534 34.22 117.11 34.22C116.87 34.22 116.654 34.316 116.462 34.508C116.27 34.692 116.118 34.948 116.006 35.276C115.902 35.604 115.85 35.972 115.85 36.38H118.37Z" fill="#4F4F4F"/>
<defs>
<clipPath id="clip0_0_1252">
<rect width="21" height="21" fill="white" transform="translate(7 12)"/>
</clipPath>
</defs>
</svg>
