<svg width="136" height="47" viewBox="0 0 136 47" fill="none" xmlns="http://www.w3.org/2000/svg">
<circle cx="23.8929" cy="23.5" r="18" fill="#DFF3FF"/>
<path d="M21.4068 23.2224C21.86 23.6766 22.467 23.9444 23.1078 23.9729V24.515H23.1109C23.1171 24.7848 23.3377 25.0001 23.6076 25.0001C23.8774 25.0001 24.0979 24.7848 24.1041 24.515H24.1071V23.9491C24.5483 23.9178 24.9614 23.7216 25.2648 23.3997C25.568 23.0778 25.739 22.6537 25.7441 22.2114C25.7739 21.7495 25.6088 21.2963 25.2891 20.9617C24.9713 20.6948 24.5771 20.5355 24.1629 20.5068L23.4672 20.4077H23.4674C23.2661 20.3868 23.0758 20.3058 22.9213 20.1752C22.8071 20.0647 22.7442 19.9115 22.7475 19.7526C22.7475 19.3484 23.0448 19.0085 23.6574 19.0085C24.0985 18.9745 24.5346 19.1204 24.8666 19.4128L24.8677 19.4115V19.4116C24.9638 19.5113 25.0964 19.5675 25.2349 19.5675C25.3733 19.5675 25.5057 19.5113 25.602 19.4116C25.6981 19.312 25.7497 19.1776 25.7448 19.0393C25.7398 18.9009 25.679 18.7705 25.5759 18.6779C25.1759 18.2992 24.6566 18.0715 24.107 18.034V17.4725C24.086 17.2105 23.8703 17.0068 23.6077 17.0002C23.3467 17.0009 23.1292 17.2003 23.1059 17.4603L23.108 18.0705V18.0706C22.6945 18.1287 22.3166 18.3362 22.0457 18.6539C21.7747 18.9716 21.6296 19.3776 21.6376 19.7951C21.613 20.223 21.7658 20.6421 22.0601 20.9536C22.3792 21.234 22.7795 21.4054 23.2025 21.4429L23.9142 21.542C24.106 21.5516 24.2895 21.6241 24.436 21.7483C24.5644 21.8807 24.6305 22.0615 24.618 22.2456C24.618 22.7169 24.254 22.9735 23.5745 22.9735C23.0582 23.0068 22.5501 22.8312 22.1642 22.4865C22.0675 22.3856 21.9344 22.3275 21.7946 22.325C21.6548 22.3227 21.5199 22.3759 21.4196 22.4733C21.3193 22.5708 21.2621 22.7042 21.2606 22.844C21.2589 22.9838 21.3131 23.1184 21.4112 23.2181L21.4068 23.2224Z" fill="#4499FE"/>
<path d="M31.9878 20.7142L29.5021 19.3332V17.0001C29.5021 16.4695 29.2913 15.9609 28.9163 15.5858C28.5411 15.2108 28.0325 15 27.502 15H19.5023C18.9718 15 18.4632 15.2108 18.088 15.5858C17.713 15.9609 17.5023 16.4695 17.5023 17.0001V19.3332L15.0165 20.7142C14.8607 20.8008 14.7308 20.9275 14.6404 21.0812C14.55 21.235 14.5023 21.41 14.5023 21.5884V30C14.5023 30.7957 14.8183 31.5588 15.381 32.1213C15.9435 32.6839 16.7066 33 17.5023 33H29.5022C30.2979 33 31.061 32.6839 31.6235 32.1213C32.1862 31.5588 32.5022 30.7957 32.5022 30V21.5884C32.5022 21.41 32.4545 21.235 32.3641 21.0812C32.2737 20.9275 32.1438 20.8008 31.988 20.7142H31.9878ZM29.837 23.921L23.8371 26.921C23.6263 27.0263 23.378 27.0263 23.1671 26.921L17.1671 23.921C16.9891 23.8321 16.8538 23.6762 16.7907 23.4875C16.7278 23.2989 16.7424 23.093 16.8311 22.915C16.92 22.7371 17.0758 22.6016 17.2645 22.5387C17.4532 22.4757 17.6591 22.4903 17.837 22.579L18.502 22.9117V17C18.5023 16.7348 18.6078 16.4807 18.7953 16.2932C18.9828 16.1057 19.2369 16.0002 19.5021 15.9999H27.5022H27.5021C27.7672 16.0002 28.0214 16.1057 28.2089 16.2932C28.3964 16.4807 28.5018 16.7348 28.5022 17V22.9117L29.1671 22.5792V22.579C29.3451 22.4903 29.551 22.4757 29.7397 22.5387C29.9283 22.6016 30.0842 22.7371 30.1731 22.915C30.2618 23.093 30.2764 23.2989 30.2134 23.4875C30.1503 23.6762 30.015 23.8321 29.8371 23.921H29.837Z" fill="#4499FE"/>
<path d="M56.7871 13.32C56.1471 12.92 55.6671 12.4933 55.3471 12.04C55.0404 11.5733 54.8871 11.02 54.8871 10.38C54.8871 9.68667 55.0871 9.06667 55.4871 8.52C55.8871 7.97333 56.4138 7.54667 57.0671 7.24C57.7338 6.92 58.4671 6.76 59.2671 6.76C60.0804 6.76 60.7871 6.91333 61.3871 7.22C61.9871 7.52667 62.4471 7.93333 62.7671 8.44C63.1004 8.93333 63.2671 9.46 63.2671 10.02C63.2671 10.9 63.0004 11.6133 62.4671 12.16C61.9471 12.6933 61.1804 13.1467 60.1671 13.52C61.0738 13.9467 61.7404 14.4333 62.1671 14.98C62.6071 15.5267 62.8271 16.1933 62.8271 16.98C62.8271 17.8467 62.5871 18.6 62.1071 19.24C61.6404 19.88 61.0071 20.3733 60.2071 20.72C59.4071 21.0667 58.5071 21.24 57.5071 21.24C56.6404 21.24 55.8604 21.0867 55.1671 20.78C54.4738 20.4733 53.9271 20.0467 53.5271 19.5C53.1271 18.9533 52.9271 18.3267 52.9271 17.62C52.9271 16.5667 53.2471 15.6933 53.8871 15C54.5404 14.2933 55.5071 13.7333 56.7871 13.32ZM59.1671 8.24C58.7538 8.24 58.3538 8.32 57.9671 8.48C57.5938 8.64 57.2871 8.88 57.0471 9.2C56.8071 9.50667 56.6871 9.89333 56.6871 10.36C56.6871 10.8667 56.8871 11.3267 57.2871 11.74C57.7004 12.14 58.2071 12.4867 58.8071 12.78C59.5404 12.5667 60.1671 12.24 60.6871 11.8C61.2071 11.3467 61.4671 10.8267 61.4671 10.24C61.4671 9.69333 61.2538 9.22667 60.8271 8.84C60.4138 8.44 59.8604 8.24 59.1671 8.24ZM57.7071 19.64C58.2671 19.64 58.7938 19.54 59.2871 19.34C59.7804 19.1267 60.1738 18.8267 60.4671 18.44C60.7738 18.0533 60.9271 17.5933 60.9271 17.06C60.9271 16.4733 60.6938 15.9333 60.2271 15.44C59.7604 14.9467 59.0938 14.54 58.2271 14.22C57.6538 14.34 57.1071 14.54 56.5871 14.82C56.0671 15.0867 55.6404 15.4333 55.3071 15.86C54.9871 16.2733 54.8271 16.7667 54.8271 17.34C54.8271 17.9933 55.1004 18.54 55.6471 18.98C56.1938 19.42 56.8804 19.64 57.7071 19.64ZM66.4793 21.24C66.106 21.24 65.806 21.1267 65.5793 20.9C65.3526 20.66 65.2393 20.3933 65.2393 20.1C65.2393 19.6067 65.3926 19.2267 65.6993 18.96C66.006 18.6933 66.346 18.56 66.7193 18.56C67.106 18.56 67.406 18.6733 67.6193 18.9C67.846 19.1267 67.9593 19.3933 67.9593 19.7C67.9593 20.1933 67.806 20.5733 67.4993 20.84C67.206 21.1067 66.866 21.24 66.4793 21.24ZM73.3154 14.44L73.5554 12.98H74.1954C75.5021 12.98 76.5487 12.7467 77.3354 12.28C78.1221 11.8 78.5154 11.1533 78.5154 10.34C78.5154 9.72667 78.3021 9.24 77.8754 8.88C77.4621 8.50667 76.9287 8.32 76.2754 8.32C75.6621 8.32 75.1354 8.42 74.6954 8.62C74.2554 8.80667 73.8621 9.02667 73.5154 9.28L72.8154 7.92C73.2821 7.58667 73.8154 7.31333 74.4154 7.1C75.0287 6.87333 75.7221 6.76 76.4954 6.76C77.3087 6.76 78.0021 6.91333 78.5754 7.22C79.1621 7.52667 79.6087 7.93333 79.9154 8.44C80.2221 8.93333 80.3754 9.46667 80.3754 10.04C80.3754 10.9733 80.1021 11.7333 79.5554 12.32C79.0087 12.8933 78.2087 13.34 77.1554 13.66C77.9954 13.9533 78.6421 14.3867 79.0954 14.96C79.5487 15.5333 79.7754 16.2133 79.7754 17C79.7754 17.8533 79.5554 18.6 79.1154 19.24C78.6754 19.88 78.0687 20.3733 77.2954 20.72C76.5354 21.0667 75.6621 21.24 74.6754 21.24C73.9154 21.24 73.1954 21.14 72.5154 20.94C71.8487 20.7267 71.2821 20.44 70.8154 20.08L71.8754 18.66C72.2087 18.94 72.6087 19.1733 73.0754 19.36C73.5421 19.5467 74.0754 19.64 74.6754 19.64C75.5821 19.64 76.3354 19.42 76.9354 18.98C77.5354 18.54 77.8354 17.9067 77.8354 17.08C77.8354 16.3467 77.5487 15.7267 76.9754 15.22C76.4021 14.7 75.5221 14.44 74.3354 14.44H73.3154ZM91.3837 7H93.2837L91.1237 19.3H97.5437L97.2437 21H88.9237L91.3837 7ZM101.539 7.2C102.046 7.09333 102.586 7.00667 103.159 6.94C103.746 6.87333 104.392 6.84 105.099 6.84C106.179 6.84 107.079 7.03333 107.799 7.42C108.519 7.79333 109.052 8.29333 109.399 8.92C109.759 9.53333 109.939 10.1933 109.939 10.9C109.939 11.9933 109.672 12.9133 109.139 13.66C108.606 14.3933 107.872 14.9533 106.939 15.34C106.006 15.7133 104.946 15.9 103.759 15.9C103.439 15.9 103.119 15.8867 102.799 15.86C102.492 15.82 102.206 15.7667 101.939 15.7L101.019 21H99.119L101.539 7.2ZM104.899 8.42C104.539 8.42 104.219 8.43333 103.939 8.46C103.672 8.48667 103.426 8.52 103.199 8.56L102.219 14.1C102.486 14.18 102.772 14.24 103.079 14.28C103.399 14.3067 103.712 14.32 104.019 14.32C105.446 14.32 106.479 14.02 107.119 13.42C107.759 12.82 108.079 12.0533 108.079 11.12C108.079 10.3333 107.799 9.68667 107.239 9.18C106.692 8.67333 105.912 8.42 104.899 8.42ZM108.305 20.26L115.985 7H118.125L121.185 20.78L119.365 21.2L118.525 17.2H112.045L109.825 21.16L108.305 20.26ZM112.945 15.6H118.185L116.765 8.86L112.945 15.6Z" fill="#2B2F34"/>
<path d="M59.5711 41.06C59.1871 41.06 58.8071 40.956 58.4311 40.748C58.0551 40.532 57.7551 40.116 57.5311 39.5L57.2311 38.72H53.8711L52.9111 41H52.3711L55.7311 33.08H56.0911L58.7311 39.5C58.9311 39.964 59.1191 40.284 59.2951 40.46C59.4711 40.628 59.7231 40.728 60.0511 40.76V41C59.9071 41.04 59.7471 41.06 59.5711 41.06ZM56.9911 38.24L55.5511 34.76L54.0511 38.24H56.9911ZM60.3526 36.74C60.1606 36.292 59.9766 35.98 59.8006 35.804C59.6246 35.62 59.3926 35.52 59.1046 35.504V35.264C59.1446 35.264 59.2006 35.26 59.2726 35.252C59.3526 35.244 59.4326 35.24 59.5126 35.24C59.9366 35.24 60.3206 35.348 60.6646 35.564C61.0086 35.772 61.3046 36.164 61.5526 36.74L62.6326 39.32L64.3126 35.36H64.9126L62.4526 41.12H62.2126L60.3526 36.74ZM68.2157 41.12C67.6717 41.12 67.2117 40.992 66.8357 40.736C66.4597 40.472 66.1757 40.12 65.9837 39.68C65.7917 39.232 65.6957 38.732 65.6957 38.18C65.6957 37.636 65.7917 37.14 65.9837 36.692C66.1757 36.244 66.4517 35.892 66.8117 35.636C67.1797 35.372 67.6077 35.24 68.0957 35.24C68.9037 35.24 69.5037 35.468 69.8957 35.924C70.2957 36.372 70.4957 37.024 70.4957 37.88L70.4717 38.36H66.8357C66.8357 39.032 66.9797 39.58 67.2677 40.004C67.5557 40.428 67.9517 40.64 68.4557 40.64C68.8317 40.64 69.1477 40.56 69.4037 40.4C69.6677 40.24 69.9117 40 70.1357 39.68L70.3757 39.86C70.1117 40.3 69.8037 40.62 69.4517 40.82C69.0997 41.02 68.6877 41.12 68.2157 41.12ZM69.3557 37.88C69.3557 37.176 69.2517 36.64 69.0437 36.272C68.8357 35.904 68.5197 35.72 68.0957 35.72C67.8557 35.72 67.6397 35.816 67.4477 36.008C67.2557 36.192 67.1037 36.448 66.9917 36.776C66.8877 37.104 66.8357 37.472 66.8357 37.88H69.3557ZM72.0951 36.8C72.0951 36.392 72.0391 36.092 71.9271 35.9C71.8151 35.7 71.5911 35.6 71.2551 35.6H71.1351V35.36H72.0951C72.3991 35.36 72.6271 35.404 72.7791 35.492C72.9391 35.572 73.0511 35.708 73.1151 35.9H73.1751C73.3191 35.716 73.5111 35.56 73.7511 35.432C73.9991 35.304 74.2871 35.24 74.6151 35.24C74.9351 35.24 75.1751 35.3 75.3351 35.42C75.4711 35.524 75.6111 35.704 75.7551 35.96L75.2751 36.32C75.1871 36.2 75.0591 36.112 74.8911 36.056C74.7231 35.992 74.5311 35.96 74.3151 35.96C74.0751 35.96 73.8551 36.016 73.6551 36.128C73.4551 36.232 73.2951 36.376 73.1751 36.56V41H72.0951V36.8ZM78.2326 41.12C77.9766 41.12 77.7166 41.068 77.4526 40.964C77.1886 40.852 76.9606 40.672 76.7686 40.424C76.5846 40.176 76.4926 39.848 76.4926 39.44C76.4926 38.832 76.7726 38.4 77.3326 38.144C77.9006 37.888 78.6406 37.76 79.5526 37.76H79.9126C79.9126 36.976 79.8046 36.44 79.5886 36.152C79.3726 35.864 79.0606 35.72 78.6526 35.72C78.2926 35.72 78.0046 35.796 77.7886 35.948C77.5726 36.1 77.4206 36.364 77.3326 36.74H76.7926C76.7926 36.468 76.8086 36.256 76.8406 36.104C76.8726 35.944 76.9566 35.796 77.0926 35.66C77.2366 35.516 77.4726 35.412 77.8006 35.348C78.1366 35.276 78.5006 35.24 78.8926 35.24C79.5406 35.24 80.0526 35.416 80.4286 35.768C80.8046 36.112 80.9926 36.776 80.9926 37.76V41H80.3926L79.9726 40.46H79.9126C79.7686 40.644 79.5566 40.8 79.2766 40.928C78.9966 41.056 78.6486 41.12 78.2326 41.12ZM78.7726 40.58C79.0366 40.58 79.2566 40.516 79.4326 40.388C79.6086 40.26 79.7686 40.084 79.9126 39.86V38.24H79.5526C78.9606 38.24 78.4926 38.352 78.1486 38.576C77.8046 38.792 77.6326 39.08 77.6326 39.44C77.6326 39.808 77.7406 40.092 77.9566 40.292C78.1806 40.484 78.4526 40.58 78.7726 40.58ZM84.874 43.4C84.066 43.4 83.422 43.252 82.942 42.956C82.47 42.66 82.234 42.188 82.234 41.54C82.234 41.172 82.358 40.852 82.606 40.58C82.854 40.308 83.17 40.108 83.554 39.98C83.234 39.804 83.074 39.564 83.074 39.26C83.074 39.1 83.11 38.976 83.182 38.888C83.254 38.8 83.358 38.704 83.494 38.6C83.238 38.472 83.022 38.272 82.846 38C82.678 37.728 82.594 37.408 82.594 37.04C82.594 35.84 83.354 35.24 84.874 35.24H87.094V35.54L86.314 35.66V35.72C86.562 35.848 86.762 36.028 86.914 36.26C87.074 36.484 87.154 36.744 87.154 37.04C87.154 38.24 86.394 38.84 84.874 38.84C84.034 38.84 83.614 38.98 83.614 39.26C83.614 39.54 84.034 39.68 84.874 39.68C85.65 39.68 86.282 39.836 86.77 40.148C87.266 40.452 87.514 40.916 87.514 41.54C87.514 42.188 87.274 42.66 86.794 42.956C86.322 43.252 85.682 43.4 84.874 43.4ZM84.874 38.42C85.234 38.42 85.522 38.312 85.738 38.096C85.962 37.872 86.074 37.52 86.074 37.04C86.074 36.584 85.962 36.24 85.738 36.008C85.522 35.776 85.234 35.66 84.874 35.66C84.514 35.66 84.222 35.772 83.998 35.996C83.782 36.212 83.674 36.56 83.674 37.04C83.674 37.52 83.782 37.872 83.998 38.096C84.222 38.312 84.514 38.42 84.874 38.42ZM84.874 42.92C85.354 42.92 85.734 42.804 86.014 42.572C86.294 42.348 86.434 42.004 86.434 41.54C86.434 40.74 85.954 40.28 84.994 40.16L84.334 40.1C84.006 40.228 83.754 40.408 83.578 40.64C83.402 40.872 83.314 41.172 83.314 41.54C83.314 42.004 83.454 42.348 83.734 42.572C84.014 42.804 84.394 42.92 84.874 42.92ZM91.0082 41.12C90.4642 41.12 90.0042 40.992 89.6282 40.736C89.2522 40.472 88.9682 40.12 88.7762 39.68C88.5842 39.232 88.4882 38.732 88.4882 38.18C88.4882 37.636 88.5842 37.14 88.7762 36.692C88.9682 36.244 89.2442 35.892 89.6042 35.636C89.9722 35.372 90.4002 35.24 90.8882 35.24C91.6962 35.24 92.2962 35.468 92.6882 35.924C93.0882 36.372 93.2882 37.024 93.2882 37.88L93.2642 38.36H89.6282C89.6282 39.032 89.7722 39.58 90.0602 40.004C90.3482 40.428 90.7442 40.64 91.2482 40.64C91.6242 40.64 91.9402 40.56 92.1962 40.4C92.4602 40.24 92.7042 40 92.9282 39.68L93.1682 39.86C92.9042 40.3 92.5962 40.62 92.2442 40.82C91.8922 41.02 91.4802 41.12 91.0082 41.12ZM92.1482 37.88C92.1482 37.176 92.0442 36.64 91.8362 36.272C91.6282 35.904 91.3122 35.72 90.8882 35.72C90.6482 35.72 90.4322 35.816 90.2402 36.008C90.0482 36.192 89.8962 36.448 89.7842 36.776C89.6802 37.104 89.6282 37.472 89.6282 37.88H92.1482ZM100.432 41.204C99.9916 41.204 99.5596 41.144 99.1356 41.024C98.7116 40.904 98.3636 40.732 98.0916 40.508C97.8276 40.284 97.6956 40.028 97.6956 39.74V38.456H97.9116C98.0476 39.256 98.3116 39.836 98.7036 40.196C99.0956 40.548 99.6356 40.724 100.324 40.724C100.756 40.724 101.124 40.616 101.428 40.4C101.74 40.184 101.896 39.884 101.896 39.5C101.896 39.164 101.792 38.872 101.584 38.624C101.376 38.376 101.04 38.116 100.576 37.844L99.0996 36.968C98.5876 36.664 98.2236 36.356 98.0076 36.044C97.7996 35.732 97.6956 35.352 97.6956 34.904C97.6956 34.288 97.9076 33.796 98.3316 33.428C98.7636 33.052 99.3276 32.864 100.024 32.864C100.432 32.864 100.836 32.924 101.236 33.044C101.636 33.156 101.964 33.324 102.22 33.548C102.484 33.764 102.616 34.016 102.616 34.304V35.588H102.4C102.264 34.788 102.004 34.216 101.62 33.872C101.244 33.52 100.712 33.344 100.024 33.344C99.6556 33.344 99.3316 33.456 99.0516 33.68C98.7716 33.904 98.6316 34.196 98.6316 34.556C98.6316 34.884 98.7316 35.156 98.9316 35.372C99.1396 35.588 99.4836 35.84 99.9636 36.128L101.44 37.004C101.984 37.332 102.368 37.636 102.592 37.916C102.816 38.196 102.928 38.552 102.928 38.984C102.928 39.656 102.704 40.196 102.256 40.604C101.808 41.004 101.2 41.204 100.432 41.204ZM105.774 41.12C105.518 41.12 105.258 41.068 104.994 40.964C104.73 40.852 104.502 40.672 104.31 40.424C104.126 40.176 104.034 39.848 104.034 39.44C104.034 38.832 104.314 38.4 104.874 38.144C105.442 37.888 106.182 37.76 107.094 37.76H107.454C107.454 36.976 107.346 36.44 107.13 36.152C106.914 35.864 106.602 35.72 106.194 35.72C105.834 35.72 105.546 35.796 105.33 35.948C105.114 36.1 104.962 36.364 104.874 36.74H104.334C104.334 36.468 104.35 36.256 104.382 36.104C104.414 35.944 104.498 35.796 104.634 35.66C104.778 35.516 105.014 35.412 105.342 35.348C105.678 35.276 106.042 35.24 106.434 35.24C107.082 35.24 107.594 35.416 107.97 35.768C108.346 36.112 108.534 36.776 108.534 37.76V41H107.934L107.514 40.46H107.454C107.31 40.644 107.098 40.8 106.818 40.928C106.538 41.056 106.19 41.12 105.774 41.12ZM106.314 40.58C106.578 40.58 106.798 40.516 106.974 40.388C107.15 40.26 107.31 40.084 107.454 39.86V38.24H107.094C106.502 38.24 106.034 38.352 105.69 38.576C105.346 38.792 105.174 39.08 105.174 39.44C105.174 39.808 105.282 40.092 105.498 40.292C105.722 40.484 105.994 40.58 106.314 40.58ZM110.375 34.52C110.375 34.112 110.319 33.812 110.207 33.62C110.095 33.42 109.871 33.32 109.535 33.32H109.295V33.08H110.375C110.671 33.08 110.891 33.12 111.035 33.2C111.187 33.272 111.295 33.408 111.359 33.608C111.423 33.808 111.455 34.112 111.455 34.52V41H110.375V34.52ZM114.698 41.12C114.442 41.12 114.182 41.068 113.918 40.964C113.654 40.852 113.426 40.672 113.234 40.424C113.05 40.176 112.958 39.848 112.958 39.44C112.958 38.832 113.238 38.4 113.798 38.144C114.366 37.888 115.106 37.76 116.018 37.76H116.378C116.378 36.976 116.27 36.44 116.054 36.152C115.838 35.864 115.526 35.72 115.118 35.72C114.758 35.72 114.47 35.796 114.254 35.948C114.038 36.1 113.886 36.364 113.798 36.74H113.258C113.258 36.468 113.274 36.256 113.306 36.104C113.338 35.944 113.422 35.796 113.558 35.66C113.702 35.516 113.938 35.412 114.266 35.348C114.602 35.276 114.966 35.24 115.358 35.24C116.006 35.24 116.518 35.416 116.894 35.768C117.27 36.112 117.458 36.776 117.458 37.76V41H116.858L116.438 40.46H116.378C116.234 40.644 116.022 40.8 115.742 40.928C115.462 41.056 115.114 41.12 114.698 41.12ZM115.238 40.58C115.502 40.58 115.722 40.516 115.898 40.388C116.074 40.26 116.234 40.084 116.378 39.86V38.24H116.018C115.426 38.24 114.958 38.352 114.614 38.576C114.27 38.792 114.098 39.08 114.098 39.44C114.098 39.808 114.206 40.092 114.422 40.292C114.646 40.484 114.918 40.58 115.238 40.58ZM119.347 36.8C119.347 36.392 119.291 36.092 119.179 35.9C119.067 35.7 118.843 35.6 118.507 35.6H118.387V35.36H119.347C119.651 35.36 119.879 35.404 120.031 35.492C120.191 35.572 120.303 35.708 120.367 35.9H120.427C120.571 35.716 120.763 35.56 121.003 35.432C121.251 35.304 121.539 35.24 121.867 35.24C122.187 35.24 122.427 35.3 122.587 35.42C122.723 35.524 122.863 35.704 123.007 35.96L122.527 36.32C122.439 36.2 122.311 36.112 122.143 36.056C121.975 35.992 121.783 35.96 121.567 35.96C121.327 35.96 121.107 36.016 120.907 36.128C120.707 36.232 120.547 36.376 120.427 36.56V41H119.347V36.8ZM124.536 43.04C124.928 43.04 125.248 42.948 125.496 42.764C125.752 42.588 125.972 42.26 126.156 41.78L126.396 41.12L124.476 36.44C124.252 35.864 123.812 35.544 123.156 35.48V35.24H124.176C124.872 35.24 125.352 35.56 125.616 36.2L126.984 39.524L128.496 35.36H129.096L126.756 41.78C126.524 42.412 126.268 42.84 125.988 43.064C125.708 43.288 125.344 43.4 124.896 43.4H124.536V43.04Z" fill="#4F4F4F"/>
</svg>
