<svg width="21" height="20" viewBox="0 0 21 20" fill="none" xmlns="http://www.w3.org/2000/svg">
<g id="Frame" clip-path="url(#clip0_4431_289)">
<path id="Vector" d="M10.5 14.1667C13.5517 14.1667 16.2209 15.4792 17.6725 17.4376L16.1375 18.1634C14.9559 16.7634 12.8725 15.8334 10.5 15.8334C8.12754 15.8334 6.0442 16.7634 4.86254 18.1634L3.32837 17.4367C4.78004 15.4784 7.44837 14.1667 10.5 14.1667ZM10.5 1.66675C11.6051 1.66675 12.6649 2.10573 13.4463 2.88714C14.2277 3.66854 14.6667 4.72835 14.6667 5.83341V8.33341C14.6666 9.40713 14.2521 10.4394 13.5095 11.2149C12.7669 11.9904 11.7536 12.4493 10.6809 12.4959L10.5 12.5001C9.39497 12.5001 8.33516 12.0611 7.55376 11.2797C6.77236 10.4983 6.33337 9.43848 6.33337 8.33341V5.83341C6.33343 4.7597 6.74799 3.72745 7.49059 2.95193C8.23318 2.17642 9.24649 1.71751 10.3192 1.67091L10.5 1.66675ZM10.5 3.33341C9.86236 3.33338 9.24877 3.57702 8.78482 4.01448C8.32086 4.45195 8.04161 5.05017 8.0042 5.68675L8.00004 5.83341V8.33341C7.99941 8.98417 8.25255 9.60952 8.70568 10.0766C9.1588 10.5437 9.7762 10.8157 10.4267 10.8347C11.0771 10.8538 11.7094 10.6186 12.1892 10.1789C12.6689 9.73918 12.9583 9.12975 12.9959 8.48008L13 8.33341V5.83341C13 5.17037 12.7366 4.53449 12.2678 4.06565C11.799 3.59681 11.1631 3.33341 10.5 3.33341Z" fill="#8393A9"/>
</g>
<defs>
<clipPath id="clip0_4431_289">
<rect width="20" height="20" fill="white" transform="translate(0.5)"/>
</clipPath>
</defs>
</svg>
